<svg width="40" height="40" viewBox="0 0 40 40" fill="none" xmlns="http://www.w3.org/2000/svg">
<path d="M30.0665 22.5833C29.3665 23.2666 28.9665 24.2499 29.0665 25.2999C29.2165 27.0999 30.8665 28.4166 32.6665 28.4166H35.8332V30.3999C35.8332 33.8499 33.0165 36.6666 29.5665 36.6666H12.7165C13.2332 36.2333 13.6832 35.7 14.0332 35.1C14.6498 34.1 14.9998 32.9166 14.9998 31.6666C14.9998 27.9833 12.0165 25 8.33317 25C6.7665 25 5.3165 25.55 4.1665 26.4666V19.1833C4.1665 15.7333 6.98317 12.9166 10.4332 12.9166H29.5665C33.0165 12.9166 35.8332 15.7333 35.8332 19.1833V21.5833H32.4665C31.5332 21.5833 30.6832 21.9499 30.0665 22.5833Z" stroke="#5235E8" stroke-width="2" stroke-linecap="round" stroke-linejoin="round"/>
<path d="M4.1665 20.6833V13.0667C4.1665 11.0834 5.38317 9.31665 7.23317 8.61665L20.4665 3.61665C22.5332 2.83331 24.7498 4.36669 24.7498 6.58336V12.9167" stroke="#5235E8" stroke-width="2" stroke-linecap="round" stroke-linejoin="round"/>
<path d="M37.5979 23.2835V26.717C37.5979 27.6336 36.8645 28.3836 35.9312 28.4169H32.6645C30.8645 28.4169 29.2145 27.1003 29.0645 25.3003C28.9645 24.2503 29.3645 23.2669 30.0645 22.5836C30.6812 21.9502 31.5312 21.5836 32.4645 21.5836H35.9312C36.8645 21.617 37.5979 22.3669 37.5979 23.2835Z" stroke="#5235E8" stroke-width="2" stroke-linecap="round" stroke-linejoin="round"/>
<path d="M11.6665 20H23.3332" stroke="#5235E8" stroke-width="2" stroke-linecap="round" stroke-linejoin="round"/>
<path d="M14.9998 31.6667C14.9998 32.9167 14.6498 34.1 14.0332 35.1C13.6832 35.7 13.2332 36.2333 12.7165 36.6667C11.5498 37.7167 10.0165 38.3333 8.33317 38.3333C5.89984 38.3333 3.78317 37.0333 2.63317 35.1C2.01651 34.1 1.6665 32.9167 1.6665 31.6667C1.6665 29.5667 2.63317 27.6833 4.1665 26.4667C5.3165 25.55 6.7665 25 8.33317 25C12.0165 25 14.9998 27.9833 14.9998 31.6667Z" stroke="#5235E8" stroke-width="2" stroke-miterlimit="10" stroke-linecap="round" stroke-linejoin="round"/>
<path d="M10.1163 33.3999L6.58301 29.8833" stroke="#5235E8" stroke-width="2" stroke-miterlimit="10" stroke-linecap="round" stroke-linejoin="round"/>
<path d="M10.0831 29.9333L6.5498 33.45" stroke="#5235E8" stroke-width="2" stroke-miterlimit="10" stroke-linecap="round" stroke-linejoin="round"/>
</svg>
