<svg width="24" height="24" viewBox="0 0 24 24" fill="none" xmlns="http://www.w3.org/2000/svg">
<rect x="6" y="3" width="12" height="18" rx="2" fill="#5235E8"/>
<path d="M3 17H21C21 19.2091 19.2091 21 17 21H7C4.79086 21 3 19.2091 3 17Z" fill="#DAF727"/>
<path d="M3 7C3 4.79086 4.79086 3 7 3H17C19.2091 3 21 4.79086 21 7H3Z" fill="#D6D1FA"/>
<path d="M9.94108 10.3395C9.94005 10.3637 9.94399 10.3879 9.95265 10.4105C9.96131 10.4332 9.97451 10.4538 9.99144 10.4712C10.0084 10.4885 10.0287 10.5022 10.0511 10.5114C10.0735 10.5206 10.0976 10.5252 10.1218 10.5248H10.7406C10.8441 10.5248 10.9266 10.44 10.9401 10.3373C11.0076 9.84525 11.3451 9.48675 11.9466 9.48675C12.4611 9.48675 12.9321 9.744 12.9321 10.3628C12.9321 10.839 12.6516 11.058 12.2083 11.391C11.7036 11.7578 11.3038 12.186 11.3323 12.8813L11.3346 13.044C11.3354 13.0932 11.3555 13.1401 11.3905 13.1746C11.4256 13.2092 11.4729 13.2285 11.5221 13.2285H12.1303C12.1801 13.2285 12.2277 13.2087 12.2629 13.1736C12.2981 13.1384 12.3178 13.0907 12.3178 13.041V12.9623C12.3178 12.4238 12.5226 12.267 13.0753 11.8478C13.5321 11.5005 14.0083 11.115 14.0083 10.3058C14.0083 9.1725 13.0513 8.625 12.0036 8.625C11.0533 8.625 10.0123 9.0675 9.94108 10.3395ZM11.1088 14.6618C11.1088 15.0615 11.4276 15.357 11.8663 15.357C12.3231 15.357 12.6373 15.0615 12.6373 14.6618C12.6373 14.2478 12.3223 13.9568 11.8656 13.9568C11.4276 13.9568 11.1088 14.2478 11.1088 14.6618Z" fill="white"/>
</svg>
