<svg width="24" height="24" viewBox="0 0 24 24" fill="none" xmlns="http://www.w3.org/2000/svg">
<path d="M3.5 14.2L6.3 14.2L6.3 19.2V20.2H3.5L3.5 14.2Z" fill="#5235E8" stroke="white"/>
<path d="M10 14.2998C8.88197 14.2998 6.5 15.0998 6.5 15.0998V19.4998C6.5 19.4998 8.02176 19.7067 9.5 19.9998C11.5168 20.3998 14.2351 20.8823 15 20.4998C17 19.4998 20 16.9998 20 16.9998C20 16.9998 21.0527 16.4053 20.6 15.4998C20.1473 14.5944 19 14.9998 19 14.9998L14.9612 16.2034C14.6805 15.709 13.5653 15.3239 12.5 14.9998C11.4008 14.6654 10.505 14.2998 10 14.2998Z" fill="#5235E8"/>
<path d="M10 16.5998C10 16.5998 10.8397 16.7797 11.8339 16.9848C14.6797 17.572 14.716 17.3951 15 16.5998C15.0499 16.4602 15.0322 16.3283 14.9612 16.2034M14.9612 16.2034C14.6805 15.709 13.5653 15.3239 12.5 14.9998C11.4008 14.6654 10.505 14.2998 10 14.2998C8.88197 14.2998 6.5 15.0998 6.5 15.0998V19.4998C6.5 19.4998 8.02176 19.7067 9.5 19.9998C11.5168 20.3998 14.2351 20.8823 15 20.4998C17 19.4998 20 16.9998 20 16.9998C20 16.9998 21.0527 16.4053 20.6 15.4998C20.1473 14.5944 19 14.9998 19 14.9998L14.9612 16.2034Z" stroke="white"/>
<path d="M15.4611 13.0608C18.2259 13.0608 20.4915 10.8144 20.4915 8.0304C20.4915 5.26557 18.2451 3 15.4611 3C12.6962 3 10.4307 5.2464 10.4307 8.0304C10.4305 10.8144 12.6769 13.0608 15.4611 13.0608ZM15.4611 3.9984C17.6883 3.9984 19.5123 5.80323 19.5123 8.0496C19.5123 10.2768 17.6883 12.1008 15.4611 12.1008C13.2338 12.1008 11.4099 10.296 11.4099 8.0496C11.4099 5.8032 13.2338 3.9984 15.4611 3.9984Z" fill="black"/>
<circle cx="15.0003" cy="8.00008" r="5.83333" fill="#DAF727"/>
<circle cx="15" cy="8" r="4.75" fill="#5235E8" stroke="white" stroke-width="0.5"/>
<path d="M15.3507 9.60495H14.6403C14.3331 9.60495 14.0836 9.35531 14.0836 9.04822H13.2196C13.2196 9.81615 13.8148 10.4306 14.5636 10.4691L14.5635 11.1985H15.4274V10.4689C16.1762 10.4305 16.7714 9.79685 16.7714 9.04808C16.7714 8.26085 16.1186 7.60808 15.3314 7.60808H14.621C14.3138 7.60808 14.0643 7.35844 14.0643 7.05135C14.0643 6.74412 14.3139 6.49462 14.621 6.49462H15.3314C15.6386 6.49462 15.8881 6.74426 15.8881 7.05135H16.7521C16.7521 6.28342 16.1569 5.66895 15.4081 5.63051V4.90088H14.5442V5.63051C13.7954 5.66895 13.2002 6.30258 13.2002 7.05135C13.2002 7.83858 13.853 8.49135 14.6402 8.49135H15.3506C15.6578 8.49135 15.9073 8.74099 15.9073 9.04808C15.9076 9.35531 15.6579 9.60495 15.3507 9.60495H15.3507Z" fill="white"/>
</svg>
