<svg width="24" height="24" viewBox="0 0 24 24" fill="none" xmlns="http://www.w3.org/2000/svg">
<path d="M21 12C21 17.4 17.049 21 12.1746 21C8.2128 21 5.016 18.8985 3.9 15.6M3 12C3 6.6 6.951 3 11.8254 3C15.7881 3 18.984 5.1015 20.1 8.4" stroke="#DAF727" stroke-width="2" stroke-linecap="round" stroke-linejoin="round"/>
<path d="M7.5 16.5L3.9 15.6L3 19.2M16.5 7.50005L20.1 8.40005L21 4.80005" stroke="#DAF727" stroke-width="2" stroke-linecap="round" stroke-linejoin="round"/>
<path d="M20.9999 12C20.9999 17.4 17.0489 21 12.1745 21C8.2127 21 5.0159 18.8985 3.8999 15.6" stroke="#D6D1FA" stroke-width="2" stroke-linecap="round" stroke-linejoin="round"/>
<path d="M7.5 16.5001L3.9 15.6001L3 19.2001" stroke="#D6D1FA" stroke-width="2" stroke-linecap="round" stroke-linejoin="round"/>
<circle cx="12.0003" cy="12.0001" r="5.83333" fill="#DAF727"/>
<circle cx="12" cy="12" r="4.75" fill="#5235E8" stroke="white" stroke-width="0.5"/>
<path d="M12.3507 13.6049H11.6403C11.3331 13.6049 11.0836 13.3553 11.0836 13.0482H10.2196C10.2196 13.8161 10.8148 14.4306 11.5636 14.4691L11.5635 15.1985H12.4274V14.4689C13.1762 14.4305 13.7714 13.7968 13.7714 13.0481C13.7714 12.2608 13.1186 11.6081 12.3314 11.6081H11.621C11.3138 11.6081 11.0643 11.3584 11.0643 11.0513C11.0643 10.7441 11.3139 10.4946 11.621 10.4946H12.3314C12.6386 10.4946 12.8881 10.7443 12.8881 11.0513H13.7521C13.7521 10.2834 13.1569 9.66895 12.4081 9.63051V8.90088H11.5442V9.63051C10.7954 9.66895 10.2002 10.3026 10.2002 11.0513C10.2002 11.8386 10.853 12.4913 11.6402 12.4913H12.3506C12.6578 12.4913 12.9073 12.741 12.9073 13.0481C12.9076 13.3553 12.6579 13.6049 12.3507 13.6049H12.3507Z" fill="white"/>
</svg>
