<svg width="24" height="24" viewBox="0 0 24 24" fill="none" xmlns="http://www.w3.org/2000/svg">
<path d="M12.4998 4C14.8091 4 16.8861 4.53592 18.3759 5.38801C19.8753 6.24554 20.7228 7.3844 20.7228 8.5757C20.7228 9.767 19.8753 10.9059 18.3759 11.7634C16.8861 12.6155 14.8091 13.1514 12.4998 13.1514C10.1906 13.1514 8.11357 12.6155 6.62373 11.7634C5.12437 10.9059 4.27686 9.767 4.27686 8.5757C4.27686 7.3844 5.12437 6.24554 6.62373 5.38801C8.11357 4.53592 10.1906 4 12.4998 4Z" fill="#5235E8" stroke="#DAF727"/>
<path fill-rule="evenodd" clip-rule="evenodd" d="M4.00167 10.5H4V12.0887C4 12.7408 4.21986 13.3864 4.64703 13.9888C5.07419 14.5911 5.70029 15.1384 6.48959 15.5995C7.27888 16.0605 8.21591 16.4263 9.24718 16.6758C10.2784 16.9254 11.3837 17.0537 12.5 17.0537C13.6162 17.0537 14.7215 16.9254 15.7528 16.6758C16.784 16.4263 17.7211 16.0605 18.5104 15.5995C19.2997 15.1384 19.9258 14.5911 20.353 13.9888C20.7801 13.3864 21 12.7408 21 12.0887V10.5H20.9983C20.9078 13.1962 17.1376 15.1519 12.5 15.1519C7.86237 15.1519 4.09222 13.1962 4.00167 10.5Z" fill="#D6D1FA"/>
<path fill-rule="evenodd" clip-rule="evenodd" d="M4.00167 14.01H4V15.5987C4 16.2508 4.21986 16.8964 4.64703 17.4988C5.07419 18.1012 5.70029 18.6485 6.48959 19.1096C7.27888 19.5706 8.21591 19.9363 9.24718 20.1858C10.2784 20.4354 11.3837 20.5638 12.5 20.5638C13.6162 20.5638 14.7215 20.4354 15.7528 20.1858C16.784 19.9363 17.7211 19.5706 18.5104 19.1096C19.2997 18.6485 19.9258 18.1012 20.353 17.4988C20.7801 16.8964 21 16.2508 21 15.5987V14.01H20.9983C20.9078 16.7062 17.1376 18.6619 12.5 18.6619C7.86237 18.6619 4.09222 16.7062 4.00167 14.01Z" fill="#5235E8"/>
<g opacity="0.8" filter="url(#filter0_f_241_7252)">
<path d="M11.9082 10.9833L12.1326 11.4669C12.1573 11.5203 12.2232 11.5549 12.2796 11.5441L12.6885 11.4659C12.7155 11.4608 12.7368 11.4456 12.7476 11.4238C12.7583 11.402 12.7577 11.3753 12.7458 11.3496L12.5213 10.866L12.7258 10.8269L12.9501 11.3105C12.975 11.3639 13.0409 11.3985 13.0972 11.3877L13.5061 11.3096C13.5331 11.3044 13.5545 11.2893 13.5652 11.2674C13.5759 11.2456 13.5753 11.2189 13.5633 11.1933L13.339 10.7097L13.3733 10.7031C14.1876 10.5473 14.5844 10.0363 14.2636 9.34491C13.9939 8.76375 13.4349 8.5248 12.9319 8.5717L12.9161 8.53765C13.2692 8.36819 13.4293 8.02921 13.211 7.55872C12.936 6.96594 12.2989 6.69601 11.5814 6.8332L11.5438 6.84039L11.3194 6.35674C11.3075 6.33107 11.2853 6.30853 11.2578 6.29406C11.2302 6.27958 11.1995 6.27436 11.1723 6.27954L10.7635 6.35772C10.7364 6.3629 10.7152 6.37806 10.7044 6.39987C10.6937 6.42167 10.6943 6.44834 10.7062 6.47399L10.9306 6.95765L10.6964 7.00244L10.472 6.51878C10.4601 6.49313 10.4379 6.47058 10.4103 6.45611C10.3827 6.44163 10.352 6.43642 10.3249 6.4416L9.94593 6.51406C9.91883 6.51925 9.89756 6.53442 9.88681 6.55622C9.87606 6.57802 9.8767 6.60468 9.88861 6.63034L10.113 7.11399L9.29819 7.27445C9.27108 7.27963 9.24981 7.29479 9.23906 7.31659C9.22831 7.33841 9.22897 7.36507 9.24087 7.39072L9.41841 7.77339C9.443 7.82639 9.50825 7.86152 9.56467 7.85073L9.87242 7.78978C9.95362 7.7748 10.0454 7.79079 10.1277 7.83425C10.2099 7.87771 10.2761 7.9451 10.3116 8.02173L11.2999 10.1518C11.3356 10.2288 11.3375 10.3087 11.3053 10.3741C11.273 10.4395 11.2092 10.485 11.1279 10.5005L10.8241 10.5634C10.797 10.5685 10.7757 10.5837 10.765 10.6055C10.7542 10.6272 10.7549 10.6539 10.7668 10.6796L10.9463 11.0665C10.971 11.1199 11.0369 11.1545 11.0934 11.1437L11.9082 10.9833ZM10.9633 7.5778L11.666 7.44342C12.0364 7.3726 12.3433 7.52369 12.4894 7.83865C12.6458 8.17566 12.4989 8.4106 11.9666 8.51238L11.4433 8.61244L10.9633 7.5778ZM11.6905 9.14524L12.4427 9.0014C12.9075 8.91251 13.2647 9.08854 13.4342 9.4538C13.6053 9.82254 13.4385 10.0638 12.8123 10.1835L12.2244 10.296L11.6907 9.14563L11.6905 9.14524Z" fill="#5235E8" fill-opacity="0.64"/>
</g>
<path d="M10.0468 7.32186L10.0471 7.32181L10.3546 7.26091C10.4237 7.24825 10.5017 7.26188 10.5717 7.29885C10.6418 7.33587 10.6981 7.39328 10.7284 7.45855L11.7166 9.58858C11.7471 9.65415 11.7487 9.72229 11.7212 9.77802C11.6938 9.83373 11.6394 9.87248 11.5701 9.88573L11.5695 9.88587L11.2663 9.94846C11.2662 9.94849 11.2661 9.94851 11.266 9.94854C11.227 9.95609 11.1964 9.97795 11.1809 10.0093C11.1654 10.0408 11.1663 10.0794 11.1835 10.1164L11.3631 10.5033C11.3988 10.5805 11.494 10.6304 11.5755 10.6148L11.5758 10.6147L12.345 10.4633L12.5494 10.9038C12.5851 10.9809 12.6803 11.0309 12.7618 11.0152L13.1706 10.937C13.2097 10.9296 13.2405 10.9077 13.256 10.8761C13.2715 10.8447 13.2706 10.8062 13.2534 10.7691L13.049 10.3285L13.1625 10.3067L13.367 10.7473C13.4027 10.8246 13.4979 10.8745 13.5794 10.8589L13.9882 10.7807C14.0274 10.7732 14.0581 10.7514 14.0736 10.7198C14.0891 10.6883 14.0882 10.6498 14.071 10.6127L13.8665 10.1721C14.2756 10.0919 14.5843 9.92224 14.7502 9.68125C14.9184 9.437 14.9375 9.12269 14.7712 8.76436C14.6316 8.46357 14.4154 8.24817 14.166 8.11463C13.9579 8.00328 13.7297 7.95036 13.5081 7.95024C13.641 7.86512 13.739 7.75095 13.7878 7.60975C13.8481 7.43506 13.8318 7.22221 13.7186 6.97816C13.5757 6.67013 13.3368 6.44295 13.0381 6.31181C12.743 6.18215 12.395 6.14877 12.0315 6.21687L11.8271 5.77618C11.8099 5.73913 11.7778 5.70656 11.738 5.68566C11.6981 5.66474 11.6538 5.6572 11.6146 5.66469L11.2058 5.74286C11.1667 5.75035 11.1359 5.77225 11.1204 5.80375C11.1049 5.83525 11.1058 5.87376 11.123 5.91082L11.3275 6.35148L11.1841 6.37891L10.9796 5.93824C10.9624 5.90118 10.9304 5.86862 10.8905 5.84771C10.8507 5.8268 10.8063 5.81926 10.7672 5.82674L10.3882 5.89921C10.349 5.9067 10.3183 5.9286 10.3028 5.9601C10.2873 5.99159 10.2882 6.03011 10.3054 6.06717L10.5099 6.50807L9.74045 6.6596L9.76039 6.70259L9.7402 6.65964L9.74031 6.65962C9.70123 6.66713 9.67056 6.68902 9.65505 6.72048C9.63952 6.75198 9.64046 6.79049 9.65765 6.82754L9.83519 7.21022C9.87054 7.2864 9.96473 7.33756 10.0468 7.32186ZM11.931 7.98891L11.4909 7.04025L12.1482 6.91455C12.3253 6.88068 12.4815 6.90091 12.608 6.96204C12.7338 7.02285 12.8377 7.12771 12.9062 7.27548C12.9796 7.43364 12.9797 7.5617 12.9052 7.6628C12.8291 7.76609 12.6706 7.84748 12.4089 7.89753L11.931 7.98891ZM12.2181 8.60768L12.9249 8.47253C13.15 8.42948 13.3427 8.4518 13.4962 8.52338C13.6488 8.59446 13.7708 8.71781 13.8509 8.89062C13.9316 9.06443 13.9303 9.20124 13.8421 9.30992C13.7514 9.42154 13.5644 9.50943 13.2545 9.56869L12.7121 9.67242L12.2181 8.60768Z" fill="white" stroke="#8D79F1" stroke-width="0.25"/>
<defs>
<filter id="filter0_f_241_7252" x="5.23145" y="2.27759" width="13.1436" height="13.2686" filterUnits="userSpaceOnUse" color-interpolation-filters="sRGB">
<feFlood flood-opacity="0" result="BackgroundImageFix"/>
<feBlend mode="normal" in="SourceGraphic" in2="BackgroundImageFix" result="shape"/>
<feGaussianBlur stdDeviation="2" result="effect1_foregroundBlur_241_7252"/>
</filter>
</defs>
</svg>
