<svg width="24" height="24" viewBox="0 0 24 24" fill="none" xmlns="http://www.w3.org/2000/svg">
<path d="M12 0C18.6273 0 24 5.37267 24 12C24 18.6273 18.6273 24 12 24C5.37267 24 0 18.6273 0 12C0 5.37267 5.37267 0 12 0Z" fill="#0052FF"/>
<path d="M12.0053 16.217C9.67297 16.217 7.78837 14.3272 7.78837 12.0001C7.78837 9.67297 9.67817 7.78316 12.0053 7.78316C14.0929 7.78316 15.8265 9.30333 16.1597 11.2973H20.4079C20.0487 6.96581 16.4252 3.56104 12.0001 3.56104C7.34064 3.56104 3.56104 7.34065 3.56104 12.0001C3.56104 16.6595 7.34064 20.4391 12.0001 20.4391C16.4252 20.4391 20.0487 17.0344 20.4079 12.7029H16.1545C15.8213 14.6968 14.0929 16.217 12.0053 16.217Z" fill="white"/>
</svg>
