<svg width="24" height="24" viewBox="0 0 24 24" fill="none" xmlns="http://www.w3.org/2000/svg">
<path d="M16.8276 12L24 19.1642H21.4621C21.0345 19.1642 20.6069 18.9851 20.3034 18.682L13.6414 12L20.331 5.30425C20.6345 5.00115 21.0483 4.82204 21.4897 4.83582H24L16.8276 12ZM3.68276 5.30425C3.37931 5.00115 2.96552 4.82204 2.52414 4.83582H0L7.17241 12L0 19.1642H2.53793C2.96552 19.1642 3.3931 18.9851 3.69655 18.682L10.3724 11.9862L3.68276 5.30425ZM12 13.6395L5.29655 20.3215C4.9931 20.6246 4.82759 21.0379 4.82759 21.4788V24L12 16.8358L19.1724 24V21.465C19.1724 21.0379 19.0069 20.6108 18.7034 20.3077L12 13.6395ZM12 10.3605L18.7034 3.67853C19.0069 3.37543 19.1724 2.96211 19.1724 2.52124V0L12 7.16418L4.82759 0V2.52124C4.82759 2.94834 4.9931 3.37543 5.29655 3.67853L12 10.3605Z" fill="url(#paint0_linear_454_16668)"/>
<defs>
<linearGradient id="paint0_linear_454_16668" x1="-0.00800275" y1="11.9974" x2="15.167" y2="11.9974" gradientUnits="userSpaceOnUse">
<stop stop-color="#00BFFF"/>
<stop offset="1" stop-color="#6619FF"/>
</linearGradient>
</defs>
</svg>
