<svg width="24" height="24" viewBox="0 0 24 24" fill="none" xmlns="http://www.w3.org/2000/svg">
<rect x="0.25" y="0.25" width="23.5" height="23.5" rx="5.75" fill="white" stroke="#E3E3E8" stroke-width="0.5"/>
<path d="M11.9261 4.60352C14.4846 6.58565 17.4185 6.46333 18.2567 6.46333C18.0736 17.7367 16.6764 16.2348 11.9261 19.3958C7.17583 16.2352 5.78723 17.7367 5.60498 6.46333C6.4333 6.46333 9.3677 6.58565 11.9261 4.60352Z" fill="white"/>
<path d="M11.9262 4.60357L12.2956 4.1262C12.1898 4.04439 12.0599 4 11.9262 4C11.7925 4 11.6625 4.04439 11.5568 4.1262L11.9262 4.60357ZM18.2568 6.46338L18.861 6.47323C18.8622 6.3931 18.8475 6.31351 18.8177 6.23911C18.7879 6.16472 18.7436 6.09699 18.6874 6.03988C18.6311 5.98277 18.5641 5.93742 18.4902 5.90647C18.4163 5.87551 18.3369 5.85958 18.2568 5.85959V6.46338ZM11.9262 19.3959L11.5916 19.8987C11.6907 19.9648 11.8071 20 11.9262 20C12.0452 20 12.1616 19.9648 12.2607 19.8987L11.9262 19.3959ZM5.60502 6.46338V5.85959C5.52491 5.85963 5.44561 5.87561 5.37173 5.90659C5.29785 5.93756 5.23087 5.98292 5.17468 6.04003C5.11849 6.09713 5.07422 6.16484 5.04445 6.23921C5.01467 6.31358 4.99998 6.39313 5.00123 6.47323L5.60502 6.46338ZM11.5568 5.08094C14.2974 7.20427 17.4334 7.06758 18.2572 7.06758V5.85959C17.405 5.85959 14.6726 5.96713 12.2964 4.1262L11.5568 5.08094ZM17.6534 6.45353C17.6082 9.25864 17.4892 11.2375 17.2622 12.7033C17.0377 14.1538 16.7171 15.0228 16.3042 15.6336C15.8859 16.2677 15.3601 16.6441 14.5839 17.1088C13.7995 17.5783 12.8091 18.0844 11.5921 18.8931L12.2611 19.8987C13.419 19.127 14.3844 18.6353 15.2041 18.1452C16.0304 17.6498 16.7569 17.1047 17.3049 16.31C17.8582 15.4915 18.2178 14.4252 18.4542 12.888C18.689 11.366 18.8138 9.30502 18.8601 6.47323L17.6534 6.45353ZM12.2607 18.8931C11.0437 18.0844 10.0536 17.5796 9.27047 17.1088C8.49387 16.6445 7.97012 16.2681 7.55309 15.634C7.14262 15.0236 6.82164 14.1563 6.59794 12.7037C6.37136 11.2375 6.25315 9.25864 6.20759 6.45353L5 6.47323C5.04638 9.30543 5.17034 11.366 5.40431 12.8876C5.64114 14.4247 5.99989 15.4911 6.55361 16.3096C7.09993 17.1043 7.82605 17.6498 8.65149 18.1452C9.46995 18.6349 10.435 19.127 11.5933 19.8987L12.2607 18.8931ZM5.60379 7.06758C6.41938 7.06758 9.55533 7.20427 12.2944 5.08094L11.5555 4.1262C9.17893 5.96713 6.44648 5.85959 5.60379 5.85959V7.06758Z" fill="#3375BB"/>
</svg>
