<svg width="80" height="80" viewBox="0 0 80 80" fill="none" xmlns="http://www.w3.org/2000/svg">
<g clip-path="url(#clip0_448_21552)">
<circle cx="40" cy="40" r="40" fill="#DAF727"/>
<path fill-rule="evenodd" clip-rule="evenodd" d="M40.0002 24.3333C31.3477 24.3333 24.3335 31.3475 24.3335 39.9999C24.3335 45.7975 27.4822 50.8609 32.1676 53.5713C32.6456 53.8478 32.809 54.4595 32.5324 54.9376C32.2559 55.4157 31.6442 55.579 31.1661 55.3025C25.8881 52.2493 22.3335 46.5403 22.3335 39.9999C22.3335 30.2429 30.2431 22.3333 40.0002 22.3333C49.7572 22.3333 57.6668 30.2429 57.6668 39.9999C57.6668 46.5403 54.1122 52.2493 48.8342 55.3025C48.3562 55.579 47.7444 55.4157 47.4679 54.9376C47.1913 54.4595 47.3547 53.8478 47.8328 53.5713C52.5182 50.8609 55.6668 45.7975 55.6668 39.9999C55.6668 31.3475 48.6526 24.3333 40.0002 24.3333ZM39.2931 32.6263C39.6836 32.2357 40.3167 32.2357 40.7073 32.6263L47.3739 39.2929C47.7645 39.6835 47.7645 40.3166 47.3739 40.7071C46.9834 41.0977 46.3502 41.0977 45.9597 40.7071L41.0002 35.7476V56.6667C41.0002 57.219 40.5524 57.6667 40.0002 57.6667C39.4479 57.6667 39.0002 57.219 39.0002 56.6667V35.7476L34.0406 40.7071C33.6501 41.0977 33.0169 41.0977 32.6264 40.7071C32.2359 40.3166 32.2359 39.6835 32.6264 39.2929L39.2931 32.6263Z" fill="#0E0637"/>
</g>
<defs>
<clipPath id="clip0_448_21552">
<rect width="80" height="80" fill="white"/>
</clipPath>
</defs>
</svg>
