<svg width="80" height="80" viewBox="0 0 80 80" fill="none" xmlns="http://www.w3.org/2000/svg">
<g clip-path="url(#clip0_439_11359)">
<circle cx="40" cy="40" r="40" fill="#DAF727"/>
<path fill-rule="evenodd" clip-rule="evenodd" d="M37.4085 25.7412L32.4982 30.6666H48.3355C48.3538 30.6666 48.3722 30.6666 48.3906 30.6666C48.1706 29.947 47.7697 29.2724 47.184 28.6958L47.1743 28.6863L44.2612 25.7398C42.3681 23.8639 39.301 23.8644 37.4085 25.7412ZM35.9977 24.3236C38.6709 21.6698 43.0001 21.6698 45.6734 24.3236L45.68 24.3301L48.5921 27.2755C49.8371 28.5035 50.5059 30.0732 50.5844 31.7017C50.5989 32.0038 50.476 32.2962 50.2501 32.4971C50.0241 32.6981 49.7194 32.786 49.4211 32.7363C49.1013 32.683 48.7483 32.6666 48.3355 32.6666H31.6689C31.2498 32.6666 30.8508 32.6965 30.4709 32.7549C30.1014 32.8118 29.731 32.6577 29.5108 32.3556C29.2905 32.0535 29.2572 31.6537 29.4244 31.3193C29.7165 30.7352 30.1212 30.2168 30.5777 29.7602C30.5775 29.7604 30.578 29.76 30.5777 29.7602L35.9977 24.3236Z" fill="#0E0637"/>
<path fill-rule="evenodd" clip-rule="evenodd" d="M28.3332 46C25.2021 46 22.6665 48.5356 22.6665 51.6667C22.6665 52.7292 22.9639 53.7311 23.4843 54.5751L23.4926 54.5888C24.469 56.2303 26.2653 57.3333 28.3332 57.3333C30.401 57.3333 32.1973 56.2303 33.1737 54.5888L33.182 54.5751C33.7025 53.7311 33.9998 52.7292 33.9998 51.6667C33.9998 48.5356 31.4642 46 28.3332 46ZM20.6665 51.6667C20.6665 47.431 24.0976 44 28.3332 44C32.5688 44 35.9998 47.431 35.9998 51.6667C35.9998 53.1013 35.5988 54.4636 34.8885 55.6181C33.564 57.8395 31.1291 59.3333 28.3332 59.3333C25.5372 59.3333 23.1023 57.8395 21.7778 55.6181C21.0676 54.4635 20.6665 53.1013 20.6665 51.6667Z" fill="#0E0637"/>
<path fill-rule="evenodd" clip-rule="evenodd" d="M24.8525 51.6326C24.8525 51.0803 25.3003 50.6326 25.8525 50.6326H30.8192C31.3715 50.6326 31.8192 51.0803 31.8192 51.6326C31.8192 52.1849 31.3715 52.6326 30.8192 52.6326H25.8525C25.3003 52.6326 24.8525 52.1849 24.8525 51.6326Z" fill="#0E0637"/>
<path fill-rule="evenodd" clip-rule="evenodd" d="M28.333 48.1992C28.8853 48.1992 29.333 48.6469 29.333 49.1992V54.1825C29.333 54.7348 28.8853 55.1825 28.333 55.1825C27.7807 55.1825 27.333 54.7348 27.333 54.1825V49.1992C27.333 48.6469 27.7807 48.1992 28.333 48.1992Z" fill="#0E0637"/>
<path fill-rule="evenodd" clip-rule="evenodd" d="M31.6663 32.6665C31.2473 32.6665 30.8483 32.6964 30.4684 32.7549C30.4592 32.7563 30.4501 32.7576 30.4409 32.7587C28.5394 32.9973 27.0296 33.8144 25.992 35.0318C24.9523 36.2517 24.333 37.937 24.333 39.9998V45.1294C25.4939 44.4153 26.8625 43.9998 28.333 43.9998C32.5686 43.9998 35.9997 47.4309 35.9997 51.6665C35.9997 53.0997 35.5995 54.4605 34.8906 55.6143C34.8804 55.6317 34.8701 55.6491 34.8597 55.6665H48.333C50.6058 55.6665 52.422 54.9133 53.6676 53.6677C54.9131 52.4222 55.6663 50.6059 55.6663 48.3332V39.9998C55.6663 37.9228 55.0361 36.2268 53.9801 35.0032C52.926 33.7816 51.3932 32.967 49.4675 32.7431C49.4512 32.7412 49.4348 32.7389 49.4186 32.7362C49.0988 32.6829 48.7457 32.6665 48.333 32.6665H31.6663ZM30.1781 30.776C30.6605 30.7026 31.1569 30.6665 31.6663 30.6665H48.333C48.7791 30.6665 49.2506 30.6828 49.7225 30.7593C52.0863 31.0395 54.0865 32.0652 55.4942 33.6965C56.9049 35.3312 57.6663 37.5102 57.6663 39.9998V48.3332C57.6663 51.0604 56.7529 53.4108 55.0818 55.0819C53.4107 56.7531 51.0603 57.6665 48.333 57.6665H32.7163C32.2959 57.6665 31.9204 57.4035 31.7766 57.0084C31.6329 56.6133 31.7516 56.1705 32.0737 55.9003C32.501 55.542 32.8765 55.0977 33.1692 54.596C33.1733 54.5889 33.1775 54.5819 33.1818 54.5749C33.7023 53.7309 33.9997 52.729 33.9997 51.6665C33.9997 48.5355 31.4641 45.9998 28.333 45.9998C26.635 45.9998 25.1205 46.7483 24.0839 47.9269C23.8091 48.2394 23.3695 48.349 22.9801 48.2021C22.5907 48.0553 22.333 47.6826 22.333 47.2665V39.9998C22.333 37.5294 23.0804 35.3647 24.4699 33.7345C25.8587 32.1051 27.8355 31.073 30.1781 30.776Z" fill="#0E0637"/>
<path fill-rule="evenodd" clip-rule="evenodd" d="M47.333 44.1666C47.333 41.781 49.2807 39.8333 51.6663 39.8333H56.6663C57.2186 39.8333 57.6663 40.281 57.6663 40.8333C57.6663 41.3855 57.2186 41.8333 56.6663 41.8333H51.6663C50.3853 41.8333 49.333 42.8855 49.333 44.1666C49.333 45.4476 50.3853 46.4999 51.6663 46.4999H56.6663C57.2186 46.4999 57.6663 46.9476 57.6663 47.4999C57.6663 48.0522 57.2186 48.4999 56.6663 48.4999H51.6663C49.2807 48.4999 47.333 46.5522 47.333 44.1666Z" fill="#0E0637"/>
</g>
<defs>
<clipPath id="clip0_439_11359">
<rect width="80" height="80" fill="white"/>
</clipPath>
</defs>
</svg>
