<svg width="80" height="80" viewBox="0 0 80 80" fill="none" xmlns="http://www.w3.org/2000/svg">
<g clip-path="url(#clip0_448_21603)">
<circle cx="40" cy="40" r="40" fill="#0E0637"/>
<path fill-rule="evenodd" clip-rule="evenodd" d="M40.0002 22.3333C40.5524 22.3333 41.0002 22.781 41.0002 23.3333V44.2524L45.9597 39.2928C46.3502 38.9023 46.9834 38.9023 47.3739 39.2928C47.7645 39.6833 47.7645 40.3165 47.3739 40.707L40.7073 47.3737C40.3167 47.7642 39.6836 47.7642 39.2931 47.3737L32.6264 40.707C32.2359 40.3165 32.2359 39.6833 32.6264 39.2928C33.0169 38.9023 33.6501 38.9023 34.0406 39.2928L39.0002 44.2524V23.3333C39.0002 22.781 39.4479 22.3333 40.0002 22.3333ZM32.5324 25.0622C32.809 25.5403 32.6456 26.152 32.1676 26.4286C27.4822 29.1389 24.3335 34.2023 24.3335 39.9999C24.3335 48.6524 31.3477 55.6666 40.0002 55.6666C48.6526 55.6666 55.6668 48.6524 55.6668 39.9999C55.6668 34.2023 52.5182 29.1389 47.8328 26.4286C47.3547 26.152 47.1913 25.5403 47.4679 25.0622C47.7444 24.5842 48.3562 24.4208 48.8342 24.6973C54.1122 27.7505 57.6668 33.4595 57.6668 39.9999C57.6668 49.757 49.7572 57.6666 40.0002 57.6666C30.2431 57.6666 22.3335 49.757 22.3335 39.9999C22.3335 33.4595 25.8881 27.7505 31.1661 24.6973C31.6442 24.4208 32.2559 24.5842 32.5324 25.0622Z" fill="white"/>
</g>
<defs>
<clipPath id="clip0_448_21603">
<rect width="80" height="80" fill="white"/>
</clipPath>
</defs>
</svg>
