<svg width="20" height="20" viewBox="0 0 20 20" fill="none" xmlns="http://www.w3.org/2000/svg">
<g clip-path="url(#clip0_4010_2775)">
<path fill-rule="evenodd" clip-rule="evenodd" d="M6.22051 0.888496C7.19801 0.843496 7.50968 0.833496 9.99967 0.833496C12.4897 0.833496 12.8013 0.844329 13.778 0.888496C14.7547 0.932663 15.4213 1.0885 16.0047 1.31433C16.6155 1.54516 17.1697 1.906 17.628 2.37266C18.0947 2.83016 18.4547 3.3835 18.6847 3.99516C18.9113 4.5785 19.0663 5.24516 19.1113 6.22016C19.1563 7.19933 19.1663 7.511 19.1663 10.0002C19.1663 12.4902 19.1555 12.8018 19.1113 13.7793C19.0672 14.7543 18.9113 15.421 18.6847 16.0043C18.4547 16.6161 18.0941 17.1703 17.628 17.6285C17.1697 18.0952 16.6155 18.4552 16.0047 18.6852C15.4213 18.9118 14.7547 19.0668 13.7797 19.1118C12.8013 19.1568 12.4897 19.1668 9.99967 19.1668C7.50968 19.1668 7.19801 19.156 6.22051 19.1118C5.24551 19.0677 4.57884 18.9118 3.99551 18.6852C3.38377 18.4551 2.82952 18.0945 2.37134 17.6285C1.90499 17.1707 1.5441 16.6167 1.31384 16.0052C1.08801 15.4218 0.933008 14.7552 0.888008 13.7802C0.843008 12.801 0.833008 12.4893 0.833008 10.0002C0.833008 7.51016 0.843841 7.1985 0.888008 6.22183C0.932174 5.24516 1.08801 4.5785 1.31384 3.99516C1.54444 3.38356 1.90561 2.82959 2.37217 2.37183C2.82971 1.90558 3.3834 1.5447 3.99467 1.31433C4.57801 1.0885 5.24467 0.933496 6.21968 0.888496H6.22051ZM13.7038 2.5385C12.7372 2.49433 12.4472 2.48516 9.99967 2.48516C7.55217 2.48516 7.26217 2.49433 6.29551 2.5385C5.40134 2.57933 4.91634 2.7285 4.59301 2.85433C4.16551 3.021 3.85967 3.2185 3.53884 3.53933C3.23471 3.83521 3.00066 4.1954 2.85384 4.5935C2.72801 4.91683 2.57884 5.40183 2.53801 6.296C2.49384 7.26266 2.48467 7.55266 2.48467 10.0002C2.48467 12.4477 2.49384 12.7377 2.53801 13.7043C2.57884 14.5985 2.72801 15.0835 2.85384 15.4068C3.00051 15.8043 3.23467 16.1652 3.53884 16.461C3.83467 16.7652 4.19551 16.9993 4.59301 17.146C4.91634 17.2718 5.40134 17.421 6.29551 17.4618C7.26217 17.506 7.55134 17.5152 9.99967 17.5152C12.448 17.5152 12.7372 17.506 13.7038 17.4618C14.598 17.421 15.083 17.2718 15.4063 17.146C15.8338 16.9793 16.1397 16.7818 16.4605 16.461C16.7647 16.1652 16.9988 15.8043 17.1455 15.4068C17.2713 15.0835 17.4205 14.5985 17.4613 13.7043C17.5055 12.7377 17.5147 12.4477 17.5147 10.0002C17.5147 7.55266 17.5055 7.26266 17.4613 6.296C17.4205 5.40183 17.2713 4.91683 17.1455 4.5935C16.9788 4.166 16.7813 3.86016 16.4605 3.53933C16.1646 3.23522 15.8044 3.00117 15.4063 2.85433C15.083 2.7285 14.598 2.57933 13.7038 2.5385ZM8.82884 12.826C9.48272 13.0982 10.2108 13.1349 10.8888 12.9299C11.5667 12.7249 12.1525 12.2909 12.546 11.702C12.9395 11.1131 13.1164 10.4059 13.0464 9.70108C12.9764 8.99628 12.6638 8.33764 12.1622 7.83766C11.8424 7.51806 11.4557 7.27334 11.03 7.12112C10.6042 6.9689 10.15 6.91296 9.70009 6.95734C9.25014 7.00172 8.81564 7.14531 8.42784 7.37777C8.04005 7.61023 7.70863 7.92578 7.45743 8.30171C7.20623 8.67763 7.0415 9.10457 6.9751 9.5518C6.90871 9.99902 6.9423 10.4554 7.07346 10.8881C7.20461 11.3208 7.43008 11.719 7.73361 12.0541C8.03714 12.3892 8.4112 12.6528 8.82884 12.826ZM6.66801 6.6685C7.10553 6.23098 7.62494 5.88392 8.19659 5.64713C8.76824 5.41035 9.38093 5.28847 9.99967 5.28847C10.6184 5.28847 11.2311 5.41035 11.8028 5.64713C12.3744 5.88391 12.8938 6.23098 13.3313 6.6685C13.7689 7.10602 14.1159 7.62543 14.3527 8.19708C14.5895 8.76873 14.7114 9.38142 14.7114 10.0002C14.7114 10.6189 14.5895 11.2316 14.3527 11.8032C14.1159 12.3749 13.7689 12.8943 13.3313 13.3318C12.4477 14.2154 11.2493 14.7119 9.99967 14.7119C8.75006 14.7119 7.55162 14.2154 6.66801 13.3318C5.7844 12.4482 5.28799 11.2498 5.28799 10.0002C5.28799 8.75055 5.7844 7.55211 6.66801 6.6685ZM15.7563 5.99016C15.8648 5.88789 15.9516 5.7649 16.0116 5.62847C16.0716 5.49205 16.1037 5.34497 16.1059 5.19594C16.108 5.04691 16.0803 4.89895 16.0242 4.76084C15.9682 4.62272 15.885 4.49726 15.7796 4.39186C15.6742 4.28647 15.5488 4.20329 15.4107 4.14726C15.2726 4.09123 15.1246 4.06348 14.9756 4.06565C14.8265 4.06782 14.6795 4.09987 14.543 4.15991C14.4066 4.21995 14.2836 4.30674 14.1813 4.41516C13.9824 4.62602 13.8735 4.9061 13.8778 5.19594C13.882 5.48578 13.999 5.76256 14.204 5.96753C14.4089 6.1725 14.6857 6.28952 14.9756 6.29375C15.2654 6.29797 15.5455 6.18907 15.7563 5.99016Z" fill="#C8C8D0"/>
</g>
<defs>
<clipPath id="clip0_4010_2775">
<rect width="20" height="20" fill="white"/>
</clipPath>
</defs>
</svg>
