<svg width="56" height="85" viewBox="0 0 56 85" fill="none" xmlns="http://www.w3.org/2000/svg">
<path d="M27.9995 1C35.6065 1 42.4484 2.76538 47.356 5.57227C52.2951 8.39706 55.0869 12.1486 55.0869 16.0729C55.0869 19.9972 52.2951 23.7488 47.356 26.5737C42.4484 29.3804 35.6065 31.1458 27.9995 31.1458C20.3925 31.1458 13.5507 29.3804 8.643 26.5737C3.70394 23.7488 0.912109 19.9972 0.912109 16.0729C0.912109 12.1486 3.70394 8.39706 8.643 5.57227C13.5507 2.76538 20.3925 1 27.9995 1Z" fill="url(#paint0_linear_407_7823)" stroke="url(#paint1_linear_407_7823)"/>
<path fill-rule="evenodd" clip-rule="evenodd" d="M0.00548753 21.4113H0V26.6447C3.04353e-06 28.7928 0.724238 30.9194 2.13138 32.9039C3.5385 34.888 5.60094 36.6909 8.201 38.2098C10.801 39.7284 13.8877 40.9332 17.2848 41.7552C20.6819 42.5772 24.3229 43.0001 27.9999 43.0001C31.677 43.0001 35.318 42.5772 38.7152 41.7552C42.1121 40.9332 45.1988 39.7284 47.7989 38.2098C50.399 36.6909 52.4613 34.888 53.8686 32.9039C55.2756 30.9194 56 28.7928 56 26.6447V21.4113H55.9945C55.6963 30.2928 43.2768 36.735 27.9999 36.735C12.7231 36.735 0.30379 30.2928 0.00548753 21.4113Z" fill="white"/>
<path fill-rule="evenodd" clip-rule="evenodd" d="M0.00548753 32H0V37.2334C3.04353e-06 39.3815 0.724238 41.5081 2.13138 43.4926C3.5385 45.4767 5.60094 47.2796 8.201 48.7985C10.801 50.3171 13.8877 51.5219 17.2848 52.3439C20.6819 53.1659 24.3229 53.5888 27.9999 53.5888C31.677 53.5888 35.318 53.1659 38.7152 52.3439C42.1121 51.5219 45.1988 50.3171 47.7989 48.7985C50.399 47.2796 52.4613 45.4767 53.8686 43.4926C55.2756 41.5081 56 39.3815 56 37.2334V32H55.9945C55.6963 40.8815 43.2768 47.3237 27.9999 47.3237C12.7231 47.3237 0.30379 40.8815 0.00548753 32Z" fill="#B7B4C3"/>
<path fill-rule="evenodd" clip-rule="evenodd" d="M0.00548753 42H0V47.2334C3.04353e-06 49.3815 0.724238 51.5081 2.13138 53.4926C3.5385 55.4767 5.60094 57.2796 8.201 58.7985C10.801 60.3171 13.8877 61.5219 17.2848 62.3439C20.6819 63.1659 24.3229 63.5888 27.9999 63.5888C31.677 63.5888 35.318 63.1659 38.7152 62.3439C42.1121 61.5219 45.1988 60.3171 47.7989 58.7985C50.399 57.2796 52.4613 55.4767 53.8686 53.4926C55.2756 51.5081 56 49.3815 56 47.2334V42H55.9945C55.6963 50.8815 43.2768 57.3237 27.9999 57.3237C12.7231 57.3237 0.30379 50.8815 0.00548753 42Z" fill="#86829B"/>
<path fill-rule="evenodd" clip-rule="evenodd" d="M0.00548753 53H0V58.2334C3.04353e-06 60.3815 0.724238 62.5081 2.13138 64.4926C3.5385 66.4767 5.60094 68.2796 8.201 69.7985C10.801 71.3171 13.8877 72.5219 17.2848 73.3439C20.6819 74.1659 24.3229 74.5888 27.9999 74.5888C31.677 74.5888 35.318 74.1659 38.7152 73.3439C42.1121 72.5219 45.1988 71.3171 47.7989 69.7985C50.399 68.2796 52.4613 66.4767 53.8686 64.4926C55.2756 62.5081 56 60.3815 56 58.2334V53H55.9945C55.6963 61.8815 43.2768 68.3237 27.9999 68.3237C12.7231 68.3237 0.30379 61.8815 0.00548753 53Z" fill="#565173"/>
<path fill-rule="evenodd" clip-rule="evenodd" d="M0.00548753 63H0V68.2334C3.04353e-06 70.3815 0.724238 72.5081 2.13138 74.4926C3.5385 76.4767 5.60094 78.2796 8.201 79.7985C10.801 81.3171 13.8877 82.5219 17.2848 83.3439C20.6819 84.1659 24.3229 84.5888 27.9999 84.5888C31.677 84.5888 35.318 84.1659 38.7152 83.3439C42.1121 82.5219 45.1988 81.3171 47.7989 79.7985C50.399 78.2796 52.4613 76.4767 53.8686 74.4926C55.2756 72.5081 56 70.3815 56 68.2334V63H55.9945C55.6963 71.8815 43.2768 78.3237 27.9999 78.3237C12.7231 78.3237 0.30379 71.8815 0.00548753 63Z" fill="#565173"/>
<g opacity="0.8" filter="url(#filter0_f_407_7823)">
<path d="M26.0509 24.0038L26.79 25.5968C26.8716 25.773 27.0887 25.8866 27.2745 25.8511L28.6213 25.5937C28.7104 25.5767 28.7804 25.5268 28.8161 25.4549C28.8514 25.3829 28.8492 25.295 28.81 25.2105L28.0707 23.6175L28.7442 23.4888L29.4832 25.0818C29.5651 25.2577 29.7821 25.3716 29.9677 25.3362L31.3145 25.0787C31.4037 25.0617 31.474 25.0118 31.5093 24.9399C31.5446 24.868 31.5424 24.78 31.5032 24.6956L30.7642 23.1025L30.8771 23.0809C33.5597 22.5678 34.8666 20.8845 33.8099 18.6068C32.9215 16.6924 31.0801 15.9053 29.4232 16.0598L29.3712 15.9476C30.5341 15.3894 31.0616 14.2727 30.3424 12.7229C29.4366 10.7702 27.3379 9.881 24.9745 10.3329L24.8506 10.3566L24.1115 8.76341C24.0723 8.67887 23.9992 8.60461 23.9083 8.55694C23.8175 8.50924 23.7163 8.49206 23.627 8.50911L22.2803 8.76664C22.191 8.78372 22.121 8.83365 22.0856 8.9055C22.0501 8.97732 22.0523 9.06515 22.0915 9.14965L22.8307 10.7429L22.059 10.8904L21.3198 9.29721C21.2806 9.21271 21.2076 9.13844 21.1167 9.09077C21.0258 9.04307 20.9246 9.0259 20.8353 9.04295L19.587 9.28166C19.4977 9.29875 19.4276 9.34871 19.3923 9.42052C19.3568 9.49234 19.359 9.58017 19.3982 9.6647L20.1374 11.2579L17.4533 11.7865C17.364 11.8035 17.2939 11.8535 17.2585 11.9253C17.2231 11.9971 17.2252 12.085 17.2644 12.1695L17.8493 13.43C17.9303 13.6046 18.1452 13.7203 18.3311 13.6848L19.3448 13.484C19.6123 13.4347 19.9146 13.4873 20.1856 13.6305C20.4567 13.7737 20.6745 13.9957 20.7916 14.2481L24.047 21.2647C24.1646 21.5183 24.171 21.7818 24.0648 21.9972C23.9586 22.2126 23.7484 22.3624 23.4805 22.4136L22.4797 22.6205C22.3904 22.6375 22.3204 22.6874 22.2849 22.7593C22.2495 22.8309 22.2517 22.9188 22.2909 23.0033L22.8822 24.2779C22.9638 24.4538 23.1809 24.5678 23.3667 24.5323L26.0509 24.0038ZM22.9384 12.7857L25.2533 12.3431C26.4733 12.1098 27.4842 12.6075 27.9656 13.645C28.4807 14.7552 27.9967 15.5291 26.2434 15.8643L24.5196 16.194L22.9384 12.7857ZM25.3339 17.9491L27.8118 17.4752C29.3429 17.1824 30.5195 17.7623 31.0777 18.9655C31.6414 20.1802 31.092 20.9748 29.0291 21.3693L27.0926 21.7397L25.3345 17.9503L25.3339 17.9491Z" fill="#5235E8" fill-opacity="0.64"/>
</g>
<path d="M19.9186 11.9423L19.9196 11.9421L20.9323 11.7415C21.1599 11.6998 21.417 11.7447 21.6476 11.8665C21.8785 11.9884 22.064 12.1775 22.1638 12.3925L25.4192 19.4091C25.5194 19.6251 25.5248 19.8496 25.4343 20.0331C25.3438 20.2167 25.1648 20.3443 24.9366 20.3879L24.9344 20.3884L23.9358 20.5946C23.9354 20.5947 23.935 20.5947 23.9346 20.5948C23.8062 20.6197 23.7055 20.6917 23.6545 20.7952C23.6034 20.8989 23.6064 21.0258 23.6631 21.1479L24.2544 22.4223C24.3723 22.6767 24.6858 22.8409 24.9543 22.7897L24.9551 22.7894L27.4891 22.2904L28.1624 23.7415C28.2801 23.9956 28.5936 24.1601 28.8621 24.1086L30.2088 23.8511C30.3376 23.8266 30.4389 23.7544 30.49 23.6505C30.5412 23.5468 30.5381 23.42 30.4815 23.2978L29.808 21.8464L30.182 21.7748L30.8556 23.2262C30.9734 23.4806 31.2868 23.6451 31.5553 23.5936L32.902 23.3361C33.0311 23.3113 33.1321 23.2394 33.1833 23.1355C33.2344 23.0318 33.2314 22.905 33.1747 22.7828L32.5012 21.3312C33.8486 21.0671 34.8657 20.5082 35.412 19.7144C35.9663 18.9098 36.029 17.8744 35.4811 16.694C35.0216 15.7032 34.3091 14.9936 33.4876 14.5537C32.8022 14.1869 32.0505 14.0126 31.3203 14.0122C31.7583 13.7318 32.0812 13.3557 32.2419 12.8906C32.4403 12.3152 32.3868 11.614 32.0139 10.8101C31.5431 9.79539 30.7561 9.04702 29.7724 8.61503C28.8 8.18793 27.6538 8.07796 26.4564 8.30229L25.7829 6.85062C25.7263 6.72856 25.6207 6.62129 25.4895 6.55242C25.3582 6.48353 25.2121 6.45869 25.0831 6.48334L23.7364 6.74087C23.6074 6.76552 23.5062 6.83768 23.4551 6.94143C23.404 7.04518 23.407 7.17205 23.4637 7.29414L24.1372 8.74572L23.6648 8.83606L22.9913 7.38445C22.9347 7.26239 22.8291 7.15512 22.6979 7.08622C22.5666 7.01736 22.4204 6.99252 22.2915 7.01717L21.0431 7.25589C20.9141 7.28057 20.813 7.3527 20.7618 7.45645C20.7106 7.5602 20.7137 7.6871 20.7704 7.80916L21.4442 9.26153L18.9094 9.76069L18.9751 9.90231L18.9085 9.76085L18.9089 9.76075C18.7802 9.7855 18.6791 9.8576 18.628 9.96125C18.5769 10.065 18.58 10.1919 18.6366 10.3139L19.2214 11.5745C19.3379 11.8255 19.6482 11.994 19.9186 11.9423ZM26.1254 14.1396L24.6755 11.0146L26.8408 10.6005C27.4243 10.489 27.9388 10.5556 28.3553 10.757C28.7698 10.9573 29.1119 11.3027 29.3378 11.7895C29.5794 12.3105 29.5797 12.7323 29.3344 13.0654C29.0836 13.4056 28.5617 13.6737 27.6995 13.8386L26.1254 14.1396ZM27.0711 16.1779L29.3992 15.7327C30.141 15.5909 30.7755 15.6644 31.2814 15.9002C31.7839 16.1344 32.1859 16.5407 32.4498 17.11C32.7155 17.6825 32.7112 18.1332 32.4206 18.4912C32.122 18.8589 31.506 19.1484 30.4852 19.3436L28.6983 19.6853L27.0711 16.1779Z" fill="white" stroke="#8D79F1" stroke-width="0.25"/>
<defs>
<filter id="filter0_f_407_7823" x="13.2334" y="4.50269" width="24.9424" height="25.3549" filterUnits="userSpaceOnUse" color-interpolation-filters="sRGB">
<feFlood flood-opacity="0" result="BackgroundImageFix"/>
<feBlend mode="normal" in="SourceGraphic" in2="BackgroundImageFix" result="shape"/>
<feGaussianBlur stdDeviation="2" result="effect1_foregroundBlur_407_7823"/>
</filter>
<linearGradient id="paint0_linear_407_7823" x1="56.8144" y1="2.13989" x2="-0.629934" y2="22.4625" gradientUnits="userSpaceOnUse">
<stop stop-color="#5235E8"/>
<stop offset="1" stop-color="#816CEF"/>
</linearGradient>
<linearGradient id="paint1_linear_407_7823" x1="12.5229" y1="0.0579431" x2="48.2071" y2="25.6563" gradientUnits="userSpaceOnUse">
<stop stop-color="#B0A3F5"/>
<stop offset="1" stop-color="#917FF1"/>
</linearGradient>
</defs>
</svg>
