<svg width="174" height="32" viewBox="0 0 174 32" fill="none" xmlns="http://www.w3.org/2000/svg">
<g clip-path="url(#clip0_4010_3109)">
<path d="M97.6592 23.6191H101.381V9.54817H97.6592V23.6191ZM97.6592 7.35392H101.381V4.00763H97.6592V7.35392Z" fill="#9C9CAB"/>
<path d="M103.78 28.2271H107.502V22.0282H107.556C108.35 23.2351 109.636 24.0305 111.606 24.0305C115.219 24.0305 117.682 21.1505 117.682 16.5974C117.682 12.2087 115.301 9.16418 111.579 9.16418C109.664 9.16418 108.35 10.0694 107.447 11.3036H107.365V9.54818H103.78V28.2271ZM110.813 20.9311C108.596 20.9311 107.42 19.2579 107.42 16.7071C107.42 14.1836 108.35 12.1814 110.676 12.1814C112.975 12.1814 113.905 14.0465 113.905 16.7071C113.905 19.3676 112.701 20.9311 110.813 20.9311Z" fill="#9C9CAB"/>
<path d="M125.105 24.0305C128.609 24.0305 131.017 22.3299 131.017 19.5047C131.017 16.2134 128.417 15.5551 126.063 15.0614C124.065 14.6499 122.205 14.5402 122.205 13.3334C122.205 12.3185 123.163 11.7699 124.613 11.7699C126.2 11.7699 127.158 12.3185 127.322 13.8271H130.688C130.415 11.0019 128.362 9.16418 124.668 9.16418C121.466 9.16418 118.948 10.6179 118.948 13.6625C118.948 16.7345 121.411 17.4202 123.929 17.9139C125.844 18.2979 127.623 18.4351 127.623 19.7791C127.623 20.7665 126.693 21.3974 125.051 21.3974C123.381 21.3974 122.232 20.6842 121.986 19.0659H118.538C118.757 22.0556 121.028 24.0305 125.105 24.0305Z" fill="#9C9CAB"/>
<path d="M145.147 23.619V9.54816H141.425V17.667C141.425 19.5322 140.358 20.8487 138.606 20.8487C137.019 20.8487 136.281 19.9436 136.281 18.2979V9.54816H132.586V18.9287C132.586 22.0007 134.337 24.003 137.457 24.003C139.428 24.003 140.522 23.2625 141.48 21.9734H141.562V23.619H145.147Z" fill="#9C9CAB"/>
<path d="M147.554 23.6191H151.276V15.4454C151.276 13.5802 152.288 12.3734 153.794 12.3734C155.162 12.3734 155.955 13.1962 155.955 14.7871V23.6191H159.677V15.4454C159.677 13.5802 160.635 12.3734 162.194 12.3734C163.563 12.3734 164.357 13.1962 164.357 14.7871V23.6191H168.079V14.1562C168.079 11.0842 166.409 9.16418 163.453 9.16418C161.675 9.16418 160.197 10.0967 159.239 11.6327H159.185C158.501 10.1516 157.077 9.16418 155.298 9.16418C153.356 9.16418 151.988 10.1516 151.221 11.4407H151.139V9.54818H147.554V23.6191Z" fill="#9C9CAB"/>
<path d="M0.658203 23.6191H4.37993V4.00763H0.658203V23.6191Z" fill="#9C9CAB"/>
<path d="M13.4795 24.0305C17.8307 24.0305 20.8135 20.7939 20.8135 16.5974C20.8135 12.4007 17.8307 9.16418 13.4795 9.16418C9.12835 9.16418 6.14551 12.4007 6.14551 16.5974C6.14551 20.7939 9.12835 24.0305 13.4795 24.0305ZM13.4795 21.1779C11.1808 21.1779 9.92196 19.3402 9.92196 16.5974C9.92196 13.8545 11.1808 11.9894 13.4795 11.9894C15.7509 11.9894 17.037 13.8545 17.037 16.5974C17.037 19.3402 15.7509 21.1779 13.4795 21.1779Z" fill="#9C9CAB"/>
<path d="M28.7281 28.4191C30.8079 28.4191 32.6141 27.9254 33.7907 26.8282C34.8307 25.8682 35.4601 24.5242 35.4601 22.5494V9.54818H31.8752V11.0294H31.8205C30.9721 9.84994 29.6859 9.16418 27.9345 9.16418C24.377 9.16418 21.8594 11.8522 21.8594 16.0487C21.8594 20.3002 24.9243 22.7687 28.044 22.7687C29.8227 22.7687 30.8901 22.0556 31.711 21.1231H31.7931V22.6591C31.7931 24.5791 30.7805 25.5939 28.6734 25.5939C26.9494 25.5939 26.1557 24.9082 25.8548 24.0305H22.1604C22.5435 26.7734 24.897 28.4191 28.7281 28.4191ZM28.6734 19.7791C26.7578 19.7791 25.499 18.3802 25.499 15.9939C25.499 13.6351 26.7578 12.1539 28.646 12.1539C30.8901 12.1539 31.9847 13.9094 31.9847 15.9665C31.9847 18.0511 31.0269 19.7791 28.6734 19.7791Z" fill="#9C9CAB"/>
<path d="M44.5069 24.0305C48.858 24.0305 51.8409 20.7939 51.8409 16.5974C51.8409 12.4007 48.858 9.16418 44.5069 9.16418C40.1558 9.16418 37.1729 12.4007 37.1729 16.5974C37.1729 20.7939 40.1558 24.0305 44.5069 24.0305ZM44.5069 21.1779C42.2082 21.1779 40.9494 19.3402 40.9494 16.5974C40.9494 13.8545 42.2082 11.9894 44.5069 11.9894C46.7782 11.9894 48.0645 13.8545 48.0645 16.5974C48.0645 19.3402 46.7782 21.1779 44.5069 21.1779Z" fill="#9C9CAB"/>
<path d="M169.431 7.23807C169.431 6.60689 169.941 6.09521 170.571 6.09521H172.852C173.481 6.09521 173.992 6.60689 173.992 7.23807C173.992 7.86925 173.481 8.38093 172.852 8.38093H170.571C169.941 8.38093 169.431 7.86925 169.431 7.23807Z" fill="#9C9CAB"/>
<path fill-rule="evenodd" clip-rule="evenodd" d="M74.4115 0C83.2275 0 90.3751 7.16345 90.3751 16C90.3751 24.8366 83.2275 32 74.4115 32C65.5953 32 58.4482 24.8366 58.4482 16C58.4482 7.16345 65.5953 0 74.4115 0ZM73.8345 1.19727C72.0134 1.45415 70.2793 2.92086 68.9332 5.37392C68.5427 6.08546 68.1904 6.87157 67.8834 7.72035C69.7138 7.25934 71.7244 6.98754 73.8345 6.9455V1.19727ZM66.5342 8.10464C66.9161 6.90366 67.3831 5.79872 67.9221 4.81652C68.5893 3.60047 69.3813 2.55036 70.2735 1.74382C65.4216 3.15618 61.5972 6.98943 60.188 11.8526C60.9927 10.9582 62.0404 10.1645 63.2537 9.49568C64.2337 8.95544 65.336 8.48728 66.5342 8.10464ZM66.1509 9.45688C65.6909 11.2914 65.4197 13.3067 65.3778 15.4217H59.6427C59.899 13.5963 61.3623 11.8582 63.8098 10.5091C64.5197 10.1178 65.304 9.76464 66.1509 9.45688ZM66.532 15.4217C66.5796 13.1136 66.9112 10.9467 67.4597 9.03216C69.3699 8.4824 71.5318 8.15008 73.8345 8.10232V10.6006C72.9755 12.805 71.2234 14.561 69.024 15.4217H66.532ZM65.3778 16.5783H59.6427C59.899 18.4037 61.3623 20.1417 63.8098 21.4909C64.5197 21.8822 65.304 22.2354 66.1509 22.5431C65.6909 20.7086 65.4197 18.6933 65.3778 16.5783ZM67.4597 22.9678C66.9112 21.0533 66.5796 18.8864 66.532 16.5783H69.024C71.2234 17.439 72.9755 19.195 73.8345 21.3994V23.8977C71.5318 23.8499 69.3699 23.5176 67.4597 22.9678ZM66.5342 23.8954C65.336 23.5127 64.2337 23.0446 63.2537 22.5043C62.0404 21.8355 60.9927 21.0418 60.188 20.1474C61.5972 25.0106 65.4216 28.8438 70.2735 30.2562C69.3813 29.4496 68.5893 28.3995 67.9221 27.1834C67.3831 26.2013 66.9161 25.0963 66.5342 23.8954ZM73.8345 30.8027C72.0134 30.5458 70.2793 29.0791 68.9332 26.6261C68.5427 25.9146 68.1904 25.1284 67.8834 24.2797C69.7138 24.7406 71.7244 25.0125 73.8345 25.0545V30.8027ZM78.5495 30.2562C79.4417 29.4496 80.2336 28.3995 80.9009 27.1834C81.4396 26.2013 81.9074 25.0963 82.2889 23.8954C83.4869 23.5127 84.5892 23.0446 85.5693 22.5043C86.7825 21.8355 87.8305 21.0418 88.6351 20.1474C87.2255 25.0106 83.4015 28.8438 78.5495 30.2562ZM80.94 24.2797C80.6327 25.1284 80.2799 25.9146 79.8896 26.6261C78.5437 29.0791 76.8096 30.5458 74.9885 30.8027V25.0545C77.0986 25.0125 79.1092 24.7406 80.94 24.2797ZM82.672 22.5431C83.5189 22.2354 84.3034 21.8822 85.013 21.4909C87.461 20.1418 88.924 18.4037 89.1802 16.5783H83.4454C83.4031 18.6933 83.1317 20.7086 82.672 22.5431ZM82.2913 16.5783C82.2434 18.8864 81.9121 21.0533 81.363 22.9678C79.4532 23.5176 77.2912 23.8499 74.9885 23.8977V21.4012C75.8473 19.1961 77.5998 17.4393 79.7997 16.5783H82.2913ZM83.4454 15.4217H89.1802C88.924 13.5963 87.461 11.8582 85.013 10.5091C84.3034 10.1178 83.5189 9.76464 82.672 9.45688C83.1317 11.2914 83.4031 13.3067 83.4454 15.4217ZM81.363 9.03216C81.9121 10.9467 82.2434 13.1136 82.2913 15.4217H79.7998C77.5998 14.5607 75.8473 12.8039 74.9885 10.5988V8.10232C77.2912 8.15008 79.4532 8.4824 81.363 9.03216ZM82.2889 8.10464C83.4869 8.48728 84.5892 8.95544 85.5693 9.49568C86.7825 10.1645 87.8305 10.9582 88.6351 11.8526C87.2255 6.98943 83.4015 3.15618 78.5495 1.74382C79.4417 2.55036 80.2336 3.60047 80.9009 4.81652C81.4396 5.79872 81.9074 6.90366 82.2889 8.10464ZM74.9885 1.19727C76.8096 1.45415 78.5437 2.92086 79.8896 5.37392C80.2799 6.08547 80.6327 6.87157 80.94 7.72035C79.1092 7.25934 77.0986 6.98754 74.9885 6.9455V1.19727Z" fill="#9C9CAB"/>
</g>
<defs>
<clipPath id="clip0_4010_3109">
<rect width="174" height="32" fill="white"/>
</clipPath>
</defs>
</svg>
