<svg width="32" height="32" viewBox="0 0 32 32" fill="none" xmlns="http://www.w3.org/2000/svg">
<g clip-path="url(#clip0_221_5072)">
<path d="M16.0002 32C24.8368 32 32.0002 24.8366 32.0002 16C32.0002 7.16344 24.8368 0 16.0002 0C7.16369 0 0.000244141 7.16344 0.000244141 16C0.000244141 24.8366 7.16369 32 16.0002 32Z" fill="#767DFF"/>
<path fill-rule="evenodd" clip-rule="evenodd" d="M13.7703 6.5H18.2303C18.3848 6.49992 18.5366 6.54102 18.67 6.61905C18.8034 6.69709 18.9136 6.80925 18.9893 6.944L25.8953 19.263C25.968 19.3929 26.0061 19.5392 26.0061 19.688C26.0061 19.8368 25.968 19.9831 25.8953 20.113L23.6853 24.055C23.6098 24.1898 23.4998 24.3021 23.3666 24.3803C23.2334 24.4585 23.0817 24.4998 22.9273 24.5H9.07326C8.91861 24.5 8.76677 24.4587 8.63336 24.3805C8.49995 24.3023 8.3898 24.1899 8.31426 24.055L6.10526 20.113C6.03256 19.9831 5.99438 19.8368 5.99438 19.688C5.99438 19.5392 6.03256 19.3929 6.10526 19.263L13.0113 6.944C13.0869 6.80925 13.1971 6.69709 13.3305 6.61905C13.4639 6.54102 13.6157 6.49992 13.7703 6.5ZM16.0003 11.401L11.3473 19.688H20.6533L16.0003 11.401Z" fill="white"/>
</g>
<defs>
<clipPath id="clip0_221_5072">
<rect width="32" height="32" fill="white" transform="translate(0.000244141)"/>
</clipPath>
</defs>
</svg>
