<svg width="82" height="108" viewBox="0 0 82 108" fill="none" xmlns="http://www.w3.org/2000/svg">
<path d="M43.9446 86.3447C64.6706 93.9909 81.4723 82.2808 81.4723 60.1894C81.4723 38.098 64.6706 13.9909 43.9446 6.34468C23.2187 -1.30152 6.41699 10.4086 6.41699 32.5C6.41699 54.5914 23.2187 78.6985 43.9446 86.3447Z" fill="#DAF727"/>
<path d="M37.6946 14.8447C57.9025 22.2997 74.2841 45.8041 74.2841 67.3432C74.2841 88.8824 57.9025 100.3 37.6946 92.8447C17.4868 85.3896 1.10518 61.8852 1.10518 40.3461C1.10518 18.807 17.4868 7.38963 37.6946 14.8447Z" fill="#5235E8" stroke="white" stroke-width="2"/>
<path fill-rule="evenodd" clip-rule="evenodd" d="M32.4647 28.1652L42.9255 32.0244C43.288 32.1579 43.644 32.392 43.9569 32.7025C44.2698 33.013 44.5283 33.3888 44.7058 33.7911L60.9036 70.5643C61.0741 70.9519 61.1637 71.3507 61.1637 71.7228C61.1637 72.0948 61.0741 72.4276 60.9036 72.6893L55.7201 80.632C55.5431 80.9037 55.2851 81.0892 54.9727 81.1695C54.6602 81.2497 54.3046 81.2218 53.9422 81.0887L21.448 69.1009C21.0853 68.967 20.7291 68.7325 20.4162 68.4215C20.1033 68.1106 19.845 67.7344 19.6678 67.3316L14.4866 55.5652C14.3161 55.1777 14.2266 54.7788 14.2266 54.4068C14.2266 54.0347 14.3161 53.7019 14.4866 53.4402L30.6845 28.6184C30.862 28.347 31.1205 28.162 31.4333 28.0823C31.7462 28.0027 32.1022 28.0313 32.4647 28.1652ZM37.6951 42.3473L26.7816 59.0386L48.6086 67.091L37.6951 42.3473Z" fill="white"/>
</svg>
