<svg width="32" height="32" viewBox="0 0 32 32" fill="none" xmlns="http://www.w3.org/2000/svg">
<g clip-path="url(#clip0_221_5071)">
<circle cx="16.0001" cy="16.0001" r="16.0001" fill="#F3BA2F"/>
<path d="M11.8568 14.2977L16 10.1546L20.145 14.2995L22.5557 11.8888L16 5.33325L9.44633 11.8869L11.8569 14.2976L11.8568 14.2977ZM5.33325 16L7.74401 13.5889L10.1546 15.9994L7.74384 18.4102L5.33325 16ZM11.8568 17.7025L16 21.8453L20.145 17.7005L22.5569 20.1099L22.5557 20.1112L16 26.6667L9.44633 20.113L9.44292 20.1096L11.8571 17.7022L11.8568 17.7025ZM21.8453 16.001L24.2561 13.5902L26.6667 16.0008L24.256 18.4116L21.8453 16.001Z" fill="#251C49"/>
<path d="M18.4449 15.9987H18.446L15.9999 13.5525L14.192 15.36L13.9843 15.5678L13.5559 15.9962L13.5525 15.9996L13.5559 16.0031L15.9999 18.4475L18.4461 16.0013L18.4473 15.9999L18.4451 15.9987" fill="#251C49"/>
</g>
<defs>
<clipPath id="clip0_221_5071">
<rect width="32.0001" height="32" fill="white"/>
</clipPath>
</defs>
</svg>
