<svg width="32" height="32" viewBox="0 0 32 32" fill="none" xmlns="http://www.w3.org/2000/svg">
<g clip-path="url(#clip0_221_4770)">
<path d="M31.5216 19.8695C29.3839 28.4455 20.695 33.6587 12.1312 31.5209C3.55498 29.3831 -1.65827 20.6946 0.479602 12.131C2.61735 3.55498 11.2936 -1.65827 19.8699 0.479603C28.4336 2.60485 33.6595 11.2934 31.5216 19.8695Z" fill="url(#paint0_linear_221_4770)"/>
<path d="M23.6183 14.0062C23.9308 11.8812 22.3183 10.7312 20.0933 9.96865L20.8183 7.08115L19.0683 6.64365L18.3683 9.45615C17.9058 9.34365 17.4308 9.23115 16.9558 9.13115L17.6558 6.30615L15.9058 5.86865L15.1933 8.74365C14.8058 8.65615 14.4308 8.56865 14.0683 8.48115V8.46865L11.6433 7.86865L11.1808 9.74365C11.1808 9.74365 12.4808 10.0437 12.4558 10.0562C13.1683 10.2312 13.2933 10.7062 13.2683 11.0812L12.4433 14.3687C12.4933 14.3812 12.5558 14.3937 12.6308 14.4312C12.5683 14.4187 12.5058 14.4062 12.4433 14.3812L11.2933 18.9812C11.2058 19.1937 10.9808 19.5187 10.4933 19.3937C10.5058 19.4187 9.21826 19.0812 9.21826 19.0812L8.34326 21.0937L10.6308 21.6687C11.0558 21.7812 11.4683 21.8812 11.8808 21.9937L11.1558 24.9062L12.9058 25.3437L13.6308 22.4562C14.1058 22.5812 14.5808 22.7062 15.0308 22.8187L14.3183 25.6937L16.0683 26.1312L16.7933 23.2187C19.7933 23.7812 22.0433 23.5562 22.9808 20.8437C23.7433 18.6687 22.9433 17.4062 21.3683 16.5812C22.5308 16.3187 23.3933 15.5562 23.6183 14.0062ZM19.6058 19.6312C19.0683 21.8062 15.3933 20.6312 14.2058 20.3312L15.1683 16.4687C16.3558 16.7687 20.1808 17.3562 19.6058 19.6312ZM20.1558 13.9687C19.6558 15.9562 16.6058 14.9437 15.6183 14.6937L16.4933 11.1937C17.4808 11.4437 20.6683 11.9062 20.1558 13.9687Z" fill="white"/>
</g>
<defs>
<linearGradient id="paint0_linear_221_4770" x1="15.9916" y1="-0.00743585" x2="15.9916" y2="31.997" gradientUnits="userSpaceOnUse">
<stop stop-color="#F9AA4B"/>
<stop offset="1" stop-color="#F7931A"/>
</linearGradient>
<clipPath id="clip0_221_4770">
<rect width="32" height="32" fill="white"/>
</clipPath>
</defs>
</svg>
