<svg width="32" height="32" viewBox="0 0 32 32" fill="none" xmlns="http://www.w3.org/2000/svg">
<path opacity="0.2" d="M16 32C24.8366 32 32 24.8366 32 16C32 7.16344 24.8366 0 16 0C7.16344 0 0 7.16344 0 16C0 24.8366 7.16344 32 16 32Z" fill="#00CBA0"/>
<path fill-rule="evenodd" clip-rule="evenodd" d="M15.9927 31.9563C24.8092 31.9563 31.9563 24.8092 31.9563 15.9927C31.9563 7.17622 24.8092 0.0290527 15.9927 0.0290527C7.17622 0.0290527 0.0290527 7.17622 0.0290527 15.9927C0.0290527 24.8092 7.17622 31.9563 15.9927 31.9563Z" fill="#2774DB"/>
<path fill-rule="evenodd" clip-rule="evenodd" d="M9.4989 13.0276H17.7099C17.7099 13.0276 20.544 13.0014 18.5839 16.6274C18.5839 16.6274 17.1536 19.4651 13.6044 19.4126L15.5194 14.5679C15.5657 14.4505 15.5512 14.3181 15.4805 14.2133C15.4099 14.1086 15.292 14.0447 15.165 14.0424L12.6509 13.9998L9.47241 21.6722C9.47241 21.6722 10.5319 21.7773 11.1146 21.7248L10.7968 22.5131H12.2986C12.383 22.513 12.4585 22.4611 12.4882 22.3827L12.7568 21.6722L13.3925 21.6197L13.0217 22.5131H14.4838C14.5926 22.513 14.6903 22.4469 14.7301 22.3465L15.1412 21.3044C15.1412 21.3044 19.591 20.5687 21.604 16.9952C21.604 16.9952 24.3057 12.8437 21.1272 11.3723C20.5077 11.0906 19.8454 10.913 19.1672 10.8468L19.5412 9.93976C19.5641 9.88398 19.5576 9.82051 19.5236 9.77052C19.4897 9.72053 19.4329 9.69058 19.3722 9.69067H18.0012L17.5774 10.7942H16.9947L17.3237 9.93714C17.3451 9.8812 17.3375 9.81839 17.3032 9.76915C17.2689 9.71992 17.2124 9.69057 17.152 9.69067H15.7747L15.3509 10.7942H11.0712C10.8364 10.7935 10.6205 10.9221 10.5107 11.1279L9.4989 13.0276Z" fill="white"/>
</svg>
