<svg width="32" height="32" viewBox="0 0 32 32" fill="none" xmlns="http://www.w3.org/2000/svg">
<path opacity="0.2" d="M16 32C24.8366 32 32 24.8366 32 16C32 7.16344 24.8366 0 16 0C7.16344 0 0 7.16344 0 16C0 24.8366 7.16344 32 16 32Z" fill="#E2BD23"/>
<path d="M16 32C24.8366 32 32 24.8366 32 16C32 7.16344 24.8366 0 16 0C7.16344 0 0 7.16344 0 16C0 24.8366 7.16344 32 16 32Z" fill="#F0C30B"/>
<mask id="mask0_215_5820" style="mask-type:alpha" maskUnits="userSpaceOnUse" x="0" y="0" width="32" height="32">
<path d="M16 32C24.8366 32 32 24.8366 32 16C32 7.16344 24.8366 0 16 0C7.16344 0 0 7.16344 0 16C0 24.8366 7.16344 32 16 32Z" fill="white"/>
</mask>
<g mask="url(#mask0_215_5820)">
<path fill-rule="evenodd" clip-rule="evenodd" d="M16.2646 9.58252H11.896V15.3847H9.23071V17.3188H11.896V23.121H16.2646C18.5705 23.121 19.0674 22.8795 20.0611 22.3965C20.1383 22.359 20.2184 22.3201 20.3026 22.2797C21.4716 21.7188 22.3801 20.929 23.028 19.9104C23.676 18.8918 23.9999 17.7056 23.9999 16.3518C23.9999 14.9979 23.676 13.8117 23.028 12.7931C22.3801 11.7745 21.4716 10.9847 20.3026 10.4238C19.1336 9.86296 17.7877 9.58252 16.2646 9.58252ZM15.1424 17.3188V20.5487H16.1043C17.5071 20.5487 18.626 20.1715 19.461 19.4172C20.2959 18.663 20.7134 17.6411 20.7134 16.3518C20.7134 15.0624 20.2959 14.0405 19.461 13.2863C18.626 12.532 17.5071 12.1548 16.1043 12.1548H15.1424V15.3847H18.2486V17.3188H15.1424Z" fill="white"/>
</g>
</svg>
