<svg width="82" height="108" viewBox="0 0 82 108" fill="none" xmlns="http://www.w3.org/2000/svg">
<circle cx="40" cy="40" r="40" transform="matrix(0.938191 0.346117 0 1 6.47266 -7.5)" fill="#DAF727"/>
<circle cx="40" cy="40" r="39" transform="matrix(0.938191 0.346117 0 1 0.222656 0)" fill="#5235E8" stroke="white" stroke-width="2"/>
<path d="M38.583 24.2369V24.2653C38.6096 24.4172 38.6096 24.5876 38.6096 24.758V45.234C38.583 45.3377 38.503 45.3366 38.4231 45.3639C37.8636 45.4415 37.3307 45.5005 36.7712 45.5497C35.9985 45.6338 35.1992 45.7365 34.4265 45.8207L31.6289 46.1518C30.8562 46.2359 30.0835 46.32 29.3375 46.414C28.4316 46.5342 27.499 46.6161 26.5931 46.7363C25.8204 46.8205 25.0478 46.933 24.2484 47.0073C23.609 47.0838 22.9695 47.1319 22.3567 47.2182C22.3034 47.2269 22.2501 47.2357 22.1968 47.216C22.1702 47.2062 22.1702 47.2062 22.1436 47.1679L22.8629 46.1554C24.2484 44.2242 25.6073 42.3115 26.9928 40.3803C28.4582 38.3082 29.9503 36.2459 31.4157 34.1737C32.7746 32.2611 34.1601 30.3583 35.5189 28.4456C36.5047 27.0486 37.5172 25.6613 38.503 24.2642C38.5297 24.2173 38.5563 24.1987 38.5563 24.1419L38.583 24.1517C38.5563 24.1703 38.583 24.2085 38.583 24.2369Z" fill="white"/>
<path d="M54.9401 59.2673L54.9668 59.3055L51.0501 60.3313L38.7405 63.5431C38.6872 63.5518 38.6339 63.5606 38.6073 63.5792C38.5273 63.5497 38.5273 63.4645 38.5273 63.4361V63.1805V45.6296C38.5273 45.5444 38.5273 45.4308 38.554 45.3555C38.5806 45.2517 38.6606 45.3096 38.7405 45.3675C39.0869 45.6656 39.4599 45.9737 39.8063 46.2718C40.8454 47.1664 41.8845 48.0609 42.9236 48.9271C43.8295 49.6873 44.7088 50.466 45.6147 51.2262C46.5206 51.9864 47.4265 52.775 48.3324 53.5352C49.1051 54.1895 49.9044 54.8819 50.6771 55.5362C51.4497 56.1904 52.2491 56.8829 53.0217 57.5372C53.6346 58.0472 54.2474 58.5857 54.8602 59.0958C54.8602 59.181 54.8868 59.2192 54.9401 59.2673Z" fill="white"/>
<path d="M38.581 81.2055C38.581 81.2339 38.5544 81.2525 38.5544 81.2809L38.5277 81.2711C38.5277 81.2143 38.4744 81.1662 38.4478 81.0996C36.7959 78.0194 35.1439 74.9108 33.492 71.8307C31.8134 68.6838 30.1082 65.4988 28.4296 62.352C26.8043 59.31 25.1524 56.2298 23.5271 53.1879C23.1008 52.3774 22.6745 51.5954 22.2482 50.7849C22.2215 50.7183 22.1949 50.6801 22.1416 50.5752C22.2215 50.6047 22.2748 50.6811 22.3015 50.7194C24.6195 53.0229 26.9109 55.3166 29.2289 57.6202C31.8933 60.2787 34.5311 62.9274 37.1955 65.5859L38.5544 66.9392C38.6077 67.0156 38.6077 67.0724 38.6077 67.1292V80.8178C38.6077 80.9598 38.6077 81.1018 38.581 81.2055Z" fill="white"/>
<path d="M22.1143 47.2142V47.1858C22.9669 47.1028 23.7928 46.9815 24.6454 46.8984C25.7379 46.7619 26.8303 46.6537 27.9227 46.5171C28.7486 46.4242 29.6013 46.3128 30.4272 46.2199C31.6529 46.0757 32.8518 45.95 34.0775 45.8058C34.9034 45.7129 35.7294 45.62 36.582 45.5086C37.1682 45.4408 37.781 45.3829 38.3672 45.3152C38.4205 45.3064 38.5004 45.3075 38.527 45.2606C38.5537 45.2704 38.5537 45.2988 38.527 45.3174V63.351C38.527 63.4362 38.5004 63.5116 38.5537 63.588C38.5004 63.6536 38.4471 63.5487 38.4205 63.5105C38.1807 63.28 37.9409 63.0496 37.7011 62.7907C32.5587 57.6561 27.3898 52.4832 22.2475 47.3486C22.2208 47.3103 22.1675 47.2623 22.1143 47.2142Z" fill="white"/>
<path d="M54.8866 62.6556L54.9132 62.6655C54.9132 62.7223 54.8599 62.7594 54.8333 62.8064C49.9308 68.3532 45.0282 73.9284 40.1257 79.4752C39.6195 80.0553 39.0866 80.6255 38.5804 81.2055C38.5537 81.1673 38.5537 81.1389 38.5537 81.1105V80.9401V67.1663V66.9107C39.6728 66.6136 40.7652 66.335 41.8842 66.0379C46.2006 64.9039 50.5169 63.7983 54.8066 62.6545C54.8333 62.6928 54.8599 62.6742 54.8866 62.6556Z" fill="white"/>
<path d="M38.5543 45.3272V45.2704V45.1V24.482C38.5543 24.3968 38.5276 24.3301 38.5809 24.2646C43.9897 35.8306 49.3984 47.3682 54.7805 58.9244C54.8338 59.0293 54.9138 59.1723 54.9404 59.2958C54.5674 59.0162 54.221 58.6896 53.8746 58.3914C53.4483 58.0353 52.9954 57.641 52.5691 57.285C52.3026 57.0447 52.0095 56.8229 51.7431 56.5827C51.2902 56.1884 50.8372 55.8225 50.3843 55.4282C50.1178 55.2163 49.8514 54.976 49.5849 54.7357L47.8264 53.235C47.5333 52.9848 47.2402 52.7347 46.9205 52.4748L45.6416 51.4065C45.3752 51.1947 45.1087 50.9544 44.8423 50.7141L43.0838 49.2133C42.7907 48.9632 42.4976 48.7131 42.1779 48.4531L40.8989 47.3849C40.6059 47.1348 40.3394 46.8945 40.0463 46.6444C39.5401 46.202 39.0339 45.7597 38.501 45.3359C38.5809 45.337 38.5543 45.3272 38.5543 45.3272Z" fill="white"/>
</svg>
