<svg width="32" height="32" viewBox="0 0 32 32" fill="none" xmlns="http://www.w3.org/2000/svg">
<g clip-path="url(#clip0_215_5818)">
<circle cx="16" cy="16" r="16" fill="#5235E8"/>
<path d="M16.3547 4.03408V4.04544C16.366 4.10224 16.366 4.1704 16.366 4.23856V12.429C16.3547 12.4744 16.3206 12.4858 16.2865 12.5085C16.048 12.6221 15.8208 12.7243 15.5822 12.8265C15.2528 12.9742 14.912 13.1333 14.5826 13.2809L13.3898 13.8262C13.0604 13.9739 12.7309 14.1216 12.4128 14.2692C12.0266 14.451 11.629 14.6214 11.2428 14.8031C10.9134 14.9508 10.5839 15.1099 10.2431 15.2575C9.97049 15.3825 9.69786 15.4961 9.43658 15.6211C9.41386 15.6324 9.39114 15.6438 9.36842 15.6438C9.35706 15.6438 9.35706 15.6438 9.3457 15.6324L9.65242 15.1212C10.2431 14.1443 10.8225 13.1787 11.4132 12.2018C12.038 11.1567 12.6741 10.1116 13.2989 9.06646C13.8783 8.10088 14.469 7.1353 15.0483 6.16972C15.4686 5.46541 15.9003 4.76111 16.3206 4.0568C16.332 4.03408 16.3433 4.02272 16.3433 4H16.3547C16.3433 4.01136 16.3547 4.02272 16.3547 4.03408Z" fill="#F3F3F3"/>
<path d="M23.3284 15.6324L23.3398 15.6438L21.6699 16.6321L16.4217 19.7333C16.399 19.7447 16.3762 19.756 16.3649 19.7674C16.3308 19.7674 16.3308 19.7333 16.3308 19.7219V19.6197V12.5994C16.3308 12.5653 16.3308 12.5198 16.3422 12.4858C16.3535 12.4403 16.3876 12.4517 16.4217 12.463C16.5694 12.5312 16.7284 12.5994 16.8761 12.6675C17.3191 12.872 17.7621 13.0765 18.2052 13.2696C18.5914 13.44 18.9663 13.6217 19.3525 13.7921C19.7387 13.9625 20.125 14.1443 20.5112 14.3147C20.8406 14.4624 21.1814 14.6214 21.5109 14.7691C21.8403 14.9168 22.1811 15.0758 22.5105 15.2235C22.7718 15.3371 23.0331 15.462 23.2944 15.5756C23.2944 15.6097 23.3057 15.6211 23.3284 15.6324Z" fill="#8A8DA7"/>
<path d="M16.3537 26.8218C16.3537 26.8332 16.3424 26.8445 16.3424 26.8559H16.331C16.331 26.8332 16.3083 26.8218 16.2969 26.7991C15.5926 25.8108 14.8883 24.8111 14.184 23.8228C13.4683 22.8118 12.7413 21.7894 12.0256 20.7784C11.3327 19.8015 10.6284 18.8132 9.93544 17.8362C9.75368 17.575 9.57192 17.325 9.39017 17.0638C9.37881 17.041 9.36745 17.0297 9.34473 16.9956C9.37881 16.9956 9.40153 17.0183 9.41289 17.0297C10.4012 17.609 11.3781 18.1884 12.3664 18.7677C13.5024 19.438 14.627 20.1082 15.763 20.7784L16.3424 21.1192C16.3651 21.1419 16.3651 21.1646 16.3651 21.1874V26.6628C16.3651 26.7196 16.3651 26.7764 16.3537 26.8218Z" fill="#F3F3F3"/>
<path d="M9.33325 15.6551V15.6438C9.69676 15.4847 10.0489 15.3143 10.4124 15.1553C10.8782 14.9395 11.3439 14.735 11.8097 14.5191C12.1618 14.3601 12.5253 14.1897 12.8775 14.0307C13.4001 13.7921 13.9112 13.5649 14.4338 13.3264C14.7859 13.1673 15.1381 13.0083 15.5016 12.8379C15.7515 12.7243 16.0128 12.6107 16.2627 12.4971C16.2854 12.4857 16.3195 12.4744 16.3309 12.4517C16.3422 12.4517 16.3422 12.463 16.3309 12.4744V19.6878C16.3309 19.7219 16.3195 19.756 16.3422 19.7787C16.3195 19.8128 16.2968 19.7787 16.2854 19.7674C16.1832 19.7106 16.081 19.6538 15.9787 19.5856C13.7863 18.2906 11.5825 16.9842 9.39005 15.6892C9.37869 15.6778 9.35597 15.6665 9.33325 15.6551Z" fill="#C5C8D9"/>
<path d="M23.3058 16.9956H23.3172C23.3172 17.0183 23.2945 17.041 23.2831 17.0638C21.1929 20.0059 19.1027 22.9595 17.0125 25.9017C16.7967 26.2084 16.5695 26.5151 16.3536 26.8218C16.3423 26.8105 16.3423 26.7991 16.3423 26.7877V26.7196V21.2101V21.1078C16.8194 20.8239 17.2851 20.5512 17.7623 20.2672C19.6025 19.1767 21.4428 18.0975 23.2718 17.007C23.2831 17.0183 23.2945 17.007 23.3058 16.9956Z" fill="#C5C8D9"/>
<path d="M16.3423 12.4744V12.4516V12.3835V4.13629C16.3423 4.10221 16.3309 4.07949 16.3537 4.04541C18.6597 7.87366 20.9657 11.6905 23.2604 15.5188C23.2831 15.5529 23.3172 15.5983 23.3286 15.6437C23.1695 15.5869 23.0219 15.5074 22.8742 15.4393C22.6924 15.3598 22.4993 15.2689 22.3175 15.1894C22.2039 15.1326 22.079 15.0871 21.9654 15.0303C21.7723 14.9394 21.5792 14.8599 21.386 14.769C21.2724 14.7236 21.1588 14.6668 21.0452 14.61L20.2955 14.2692C20.1705 14.2124 20.0456 14.1556 19.9093 14.0988L19.364 13.8603C19.2504 13.8148 19.1368 13.758 19.0232 13.7012L18.2735 13.3604C18.1485 13.3036 18.0235 13.2468 17.8872 13.19L17.342 12.9515C17.217 12.8947 17.1034 12.8379 16.9784 12.7811C16.7626 12.6788 16.5468 12.5766 16.3196 12.4857C16.3537 12.4744 16.3423 12.4744 16.3423 12.4744Z" fill="#C5C8D9"/>
</g>
<defs>
<clipPath id="clip0_215_5818">
<rect width="32" height="32" fill="white"/>
</clipPath>
</defs>
</svg>
