<svg width="32" height="32" viewBox="0 0 32 32" fill="none" xmlns="http://www.w3.org/2000/svg">
<circle cx="16" cy="16" r="16" fill="#00DCFA"/>
<path fill-rule="evenodd" clip-rule="evenodd" d="M11.9159 11.9149C12.3314 8.06069 15.6383 5.06665 19.5318 5.06665C23.7661 5.06943 27.1978 8.50158 27.2 12.7358C27.2 16.6283 24.2059 19.9352 20.3507 20.3517C19.9483 24.2059 16.6283 27.2 12.7348 27.2C8.50058 27.1972 5.06887 23.7651 5.06665 19.5308C5.06665 15.6383 8.05968 12.3314 11.9159 11.9149ZM20.403 18.5941C22.9843 18.2012 25.0102 16.1753 25.4032 13.594H20.403V18.5941ZM6.86347 18.6726L6.86545 18.6595H11.8636V13.6594C9.28259 14.0532 7.25804 16.0794 6.86545 18.6595H6.86347V18.6726ZM18.6071 20.404L18.6072 20.403V20.404H18.6071ZM18.6071 20.404C18.1773 23.3153 15.6777 25.4711 12.7348 25.4686C9.79219 25.4711 7.29284 23.3152 6.86347 20.404H18.6071ZM18.6726 13.594V18.6595H13.594V13.594H18.6726ZM13.6594 11.8636H25.4032V11.8626C24.9738 8.95143 22.4744 6.79554 19.5318 6.79808C16.5886 6.79555 14.0888 8.95188 13.6594 11.8636Z" fill="white"/>
</svg>
