<svg width="32" height="32" viewBox="0 0 32 32" fill="none" xmlns="http://www.w3.org/2000/svg">
<g clip-path="url(#clip0_221_5068)">
<path d="M16.0002 32C24.8368 32 32.0002 24.8366 32.0002 16C32.0002 7.16344 24.8368 0 16.0002 0C7.16369 0 0.000244141 7.16344 0.000244141 16C0.000244141 24.8366 7.16369 32 16.0002 32Z" fill="#102044"/>
<path d="M24.2483 19.35C24.6983 19.523 24.9963 19.951 25.0003 20.43C25.0005 20.6307 24.9481 20.8279 24.8485 21.0021C24.7489 21.1763 24.6054 21.3214 24.4323 21.423C24.2585 21.5251 24.0614 21.5806 23.8599 21.5841C23.6584 21.5876 23.4594 21.539 23.2823 21.443L17.2523 24.733C17.2672 24.892 17.249 25.0524 17.199 25.2041C17.149 25.3558 17.0682 25.4955 16.9616 25.6145C16.855 25.7335 16.725 25.8291 16.5797 25.8955C16.4344 25.9618 16.277 25.9974 16.1173 26C15.8098 26.0075 15.5119 25.8926 15.2891 25.6805C15.0663 25.4684 14.9369 25.1765 14.9293 24.869L11.9893 23.186H11.9223V23.151L8.82427 21.38C8.63082 21.5134 8.40126 21.5846 8.16627 21.584C7.88651 21.5855 7.61564 21.4858 7.40358 21.3033C7.19151 21.1208 7.05254 20.8679 7.01227 20.591C6.97362 20.3143 7.03664 20.033 7.18964 19.7993C7.34264 19.5656 7.57524 19.3953 7.84427 19.32V12.704C7.61792 12.6405 7.41629 12.5095 7.26622 12.3286C7.11616 12.1476 7.02479 11.9252 7.00427 11.691C6.96427 11.213 7.22527 10.76 7.66227 10.553C7.87544 10.4518 8.11424 10.4174 8.34731 10.4543C8.58039 10.4913 8.79685 10.5978 8.96827 10.76L14.9383 7.34001C14.9122 7.17414 14.9225 7.0046 14.9683 6.84309C15.0142 6.68158 15.0946 6.53195 15.2039 6.40454C15.3133 6.27713 15.449 6.17498 15.6017 6.10513C15.7543 6.03529 15.9204 5.99942 16.0883 6.00001C16.261 5.99973 16.4317 6.03804 16.5878 6.11216C16.7438 6.18628 16.8814 6.29432 16.9903 6.4284C17.0993 6.56248 17.177 6.7192 17.2176 6.88713C17.2582 7.05505 17.2609 7.22994 17.2253 7.39901L23.0533 10.737C23.2663 10.545 23.5433 10.439 23.8323 10.44C23.9899 10.3811 24.1585 10.3574 24.3262 10.3706C24.4939 10.3838 24.6568 10.4335 24.8032 10.5164C24.9497 10.5992 25.0763 10.713 25.1741 10.8499C25.2719 10.9868 25.3385 11.1435 25.3693 11.3089C25.4001 11.4743 25.3944 11.6445 25.3525 11.8074C25.3105 11.9704 25.2334 12.1222 25.1266 12.2521C25.0198 12.3821 24.8858 12.4872 24.7341 12.5599C24.5823 12.6326 24.4165 12.6712 24.2483 12.673V19.351V19.35ZM20.1303 16.745V22.428L22.8023 20.971C22.719 20.8116 22.6739 20.6351 22.6706 20.4553C22.6672 20.2755 22.7057 20.0975 22.783 19.9351C22.8603 19.7728 22.9743 19.6306 23.1159 19.5199C23.2576 19.4091 23.4231 19.3328 23.5993 19.297V12.727C23.3366 12.6751 23.1 12.5339 22.9296 12.3274C22.7591 12.1209 22.6654 11.8618 22.6643 11.594C22.6643 11.488 22.6793 11.382 22.7083 11.279L20.1753 9.82701V15.111H20.1713L20.1613 15.457L20.0183 15.524L19.1053 16.07L19.9783 16.59L20.1173 16.656L20.1213 16.718L20.1263 16.745H20.1303ZM16.0903 8.30901C15.7583 8.30901 15.4423 8.16901 15.2213 7.92201L12.5713 9.44101V15.053L13.6593 15.701L15.0333 14.893C15.0049 14.7444 15.0098 14.5913 15.0477 14.4448C15.0855 14.2983 15.1553 14.162 15.252 14.0456C15.3488 13.9293 15.4701 13.8358 15.6072 13.7719C15.7444 13.708 15.894 13.6752 16.0453 13.676C16.1929 13.6757 16.3389 13.7072 16.4732 13.7685C16.6075 13.8299 16.727 13.9195 16.8235 14.0312C16.92 14.143 16.9912 14.2743 17.0322 14.4161C17.0733 14.558 17.0832 14.707 17.0613 14.853L18.4803 15.697L19.5323 15.067V9.45801L16.9183 7.96101C16.8103 8.07109 16.6815 8.1585 16.5393 8.21809C16.3971 8.27768 16.2444 8.30825 16.0903 8.30801V8.30901ZM16.7703 16.731L17.8533 16.079L16.7653 15.43C16.5763 15.6136 16.3243 15.7183 16.0608 15.7225C15.7973 15.7268 15.5421 15.6304 15.3473 15.453L14.2773 16.074L15.3423 16.709C15.5375 16.5285 15.7948 16.4301 16.0607 16.4342C16.3265 16.4383 16.5806 16.5446 16.7703 16.731ZM9.24227 20.878L11.9223 22.414V16.922L11.9273 16.745L11.9723 16.7L12.1963 16.567L13.0283 16.079L12.2763 15.635L11.9273 15.457V15.244H11.9233V9.80901L9.29527 11.315C9.45027 11.915 9.09527 12.529 8.49527 12.7V19.324C8.81227 19.416 9.07527 19.639 9.21827 19.935C9.36127 20.232 9.37027 20.575 9.24227 20.878ZM16.0903 23.671C16.4553 23.671 16.7983 23.841 17.0163 24.133L19.4863 22.783V17.047L18.4803 16.447L17.0603 17.3C17.0703 17.35 17.0743 17.4 17.0743 17.45C17.0743 18.015 16.6143 18.472 16.0443 18.472C15.8945 18.4721 15.7466 18.4394 15.6109 18.3762C15.4752 18.3129 15.355 18.2207 15.2587 18.1061C15.1624 17.9914 15.0924 17.857 15.0537 17.7124C15.0149 17.5678 15.0083 17.4165 15.0343 17.269L13.6413 16.443L12.5673 17.069V22.783L15.0923 24.23C15.3023 23.882 15.6813 23.67 16.0903 23.671Z" fill="white"/>
</g>
<defs>
<clipPath id="clip0_221_5068">
<rect width="32" height="32" fill="white" transform="translate(0.000244141)"/>
</clipPath>
</defs>
</svg>
