<svg width="82" height="108" viewBox="0 0 82 108" fill="none" xmlns="http://www.w3.org/2000/svg">
<path d="M43.8333 6.34468C64.5593 13.9909 81.361 38.0979 81.361 60.1894C81.361 82.2808 64.5593 93.9909 43.8333 86.3447C23.1073 78.6985 6.30566 54.5914 6.30566 32.5C6.30566 10.4086 23.1073 -1.30154 43.8333 6.34468Z" fill="#DAF727"/>
<path d="M37.5833 14.8447C57.7912 22.2997 74.1728 45.8041 74.1728 67.3432C74.1728 88.8824 57.7912 100.3 37.5833 92.8447C17.3755 85.3896 0.993855 61.8853 0.993855 40.3461C0.993855 18.807 17.3755 7.38962 37.5833 14.8447Z" fill="#5235E8" stroke="white" stroke-width="2"/>
<path d="M51.3036 75.3772C48.0548 78.4209 43.4857 78.8564 37.5964 76.6837C31.7071 74.511 27.1373 70.704 23.887 65.2626C20.636 59.8187 19.0113 53.7328 19.0127 47.005C19.0141 40.2771 20.6382 35.3906 23.8849 32.3453C27.1337 29.2993 31.7035 28.8632 37.5942 31.0372C43.485 33.2112 48.0541 37.0187 51.3015 42.4598C54.5503 47.9006 56.1751 53.9858 56.1758 60.7152C56.1765 67.4446 54.5525 72.3319 51.3036 75.3772Z" fill="white"/>
<path d="M37.528 67.7877C39.0784 68.3597 40.3965 68.3957 41.4823 67.8957C42.5681 67.3957 43.3544 66.4644 43.8412 65.1019C44.3273 63.7384 44.6704 62.3861 44.8705 61.0451C45.0707 59.7041 45.17 58.2405 45.1686 56.6545C45.1686 54.7025 45.0578 52.9146 44.8362 51.2907L31.4785 61.1994C32.7137 64.5579 34.7302 66.754 37.528 67.7877Z" fill="#5235E8"/>
<path d="M37.6602 39.9326C36.1097 39.3606 34.7916 39.3246 33.7058 39.8245C32.62 40.3245 31.8337 41.2557 31.347 42.6182C30.858 43.9807 30.5149 45.3329 30.3176 46.6749C30.1175 48.0159 30.0181 49.4794 30.0195 51.0654C30.0195 52.11 30.051 53.1075 30.1139 54.0579L42.854 44.6097C41.6167 42.3133 39.8854 40.7542 37.6602 39.9326Z" fill="#5235E8"/>
<path d="M20.0507 61.5319L18.4102 59.249L30.85 50.0166L32.4905 52.2995L20.0507 61.5319ZM43.4893 55.756L41.8489 53.4731L54.2887 44.2407L55.9292 46.5236L43.4893 55.756Z" fill="#5235E8"/>
</svg>
