<svg width="32" height="32" viewBox="0 0 32 32" fill="none" xmlns="http://www.w3.org/2000/svg">
<g clip-path="url(#clip0_215_5819)">
<path d="M16 0C24.8366 0 32 7.16343 32 16C32 24.8366 24.8366 32 16 32C7.16343 32 0 24.8366 0 16C0 7.16343 7.16343 0 16 0Z" fill="#1A82FF"/>
<path d="M21.8496 22.5884C20.4644 24.2853 18.5164 25.1338 16.0055 25.1338C13.4945 25.1338 11.5462 24.2853 10.1604 22.5884C8.77439 20.8906 8.08167 18.696 8.08228 16.0046C8.08289 13.3133 8.7753 11.119 10.1595 9.42177C11.5447 7.72395 13.493 6.87518 16.0046 6.87549C18.5161 6.87579 20.4641 7.72455 21.8487 9.42177C23.2338 11.1187 23.9265 13.313 23.9268 16.0046C23.9272 18.6963 23.2347 20.8909 21.8496 22.5884Z" fill="white"/>
<path d="M15.9762 21.5855C16.6372 21.5855 17.1992 21.4053 17.6621 21.0451C18.1251 20.6849 18.4603 20.1964 18.6678 19.5795C18.8751 18.9624 19.0214 18.3708 19.1067 17.8049C19.192 17.2389 19.2344 16.6389 19.2338 16.0047C19.2338 15.2239 19.1865 14.525 19.0921 13.9082L13.397 19.8428C13.9236 21.004 14.7833 21.5849 15.9762 21.5855Z" fill="#1A82FF"/>
<path d="M16.033 10.4238C15.372 10.4238 14.81 10.6039 14.3471 10.9642C13.8841 11.3244 13.5489 11.8129 13.3413 12.4297C13.1329 13.0469 12.9866 13.6384 12.9025 14.2043C12.8171 14.7702 12.7748 15.3703 12.7754 16.0045C12.7754 16.4223 12.7888 16.8167 12.8156 17.1876L18.2474 11.5283C17.7199 10.7923 16.9817 10.4241 16.033 10.4238Z" fill="#1A82FF"/>
<path d="M8.52487 21.6623L7.82544 20.9912L13.1292 15.4625L13.8286 16.1336L8.52487 21.6623ZM18.518 15.8931L17.8186 15.222L23.1224 9.69336L23.8218 10.3644L18.518 15.8931Z" fill="#1A82FF"/>
</g>
<defs>
<clipPath id="clip0_215_5819">
<rect width="32" height="32" fill="white"/>
</clipPath>
</defs>
</svg>
