<svg width="32" height="32" viewBox="0 0 32 32" fill="none" xmlns="http://www.w3.org/2000/svg">
<circle cx="16" cy="16" r="16" fill="url(#paint0_linear_221_5074)"/>
<path fill-rule="evenodd" clip-rule="evenodd" d="M15.4207 5.7721C14.4917 5.87916 13.6279 6.30304 12.9748 6.97237C12.4845 7.45787 12.02 7.95632 11.5232 8.44668C11.2745 8.70183 11.0231 8.94998 10.7717 9.2019C10.5204 9.45382 10.2431 9.72139 9.98199 9.98572C9.72089 10.25 9.50404 10.482 9.26236 10.7275C8.88475 11.1051 8.50714 11.4827 8.12952 11.8641C7.83984 12.1635 7.55663 12.4726 7.27019 12.7714C7.10134 12.95 6.91954 13.1156 6.76041 13.3033C6.10367 14.1046 5.74473 15.1086 5.74463 16.1446C5.74463 16.2055 5.74463 16.2681 5.74841 16.3285C5.76184 16.9234 5.91798 17.5064 6.2037 18.0283C6.36635 18.3438 6.55471 18.6453 6.76688 18.9297C6.90714 19.1272 7.00909 19.124 7.19358 18.9713C7.22883 18.942 7.26183 18.9101 7.2923 18.8758C7.4741 18.6843 7.65211 18.4933 7.83714 18.3024C8.09824 18.0283 8.3658 17.7548 8.62689 17.4776C8.88799 17.2003 9.1712 16.895 9.44524 16.6085C9.57578 16.4683 9.71496 16.3388 9.84658 16.2007C10.1266 15.9045 10.4006 15.5992 10.6806 15.3063C10.9605 15.0134 11.2443 14.7393 11.5183 14.4529C11.7924 14.1664 12.1295 13.8158 12.4381 13.4975C12.7467 13.1792 13.0083 12.9117 13.2947 12.6188C13.6675 12.2331 14.0305 11.8382 14.3995 11.453C14.6288 11.2173 14.8645 10.9912 15.0938 10.7587C15.4121 10.4405 15.7082 10.1222 16.0206 9.80392C16.3329 9.48565 16.5649 9.27203 16.8324 8.99799C17.4305 8.39381 18.0277 7.78603 18.6239 7.17466C18.6624 7.13671 18.6985 7.09635 18.7318 7.05382C18.8785 6.86879 18.891 6.82779 18.7097 6.69725C18.4329 6.4792 18.1366 6.28724 17.8245 6.12382C17.2728 5.86581 16.6711 5.73211 16.0621 5.73218H16.0319C15.8285 5.73222 15.6252 5.74501 15.4234 5.77048L15.4202 5.76724L15.4207 5.7721ZM20.6905 9.69172H20.6522C20.1234 9.6919 19.6214 9.92494 19.2799 10.3288C19.2497 10.3622 19.2178 10.3941 19.1844 10.4243L18.2102 11.3796C17.8919 11.6985 17.5477 12.0453 17.2133 12.3798C16.9365 12.6565 16.6593 12.9273 16.3858 13.2046C16.1123 13.4819 15.8188 13.7904 15.5226 14.0801C15.2265 14.3698 14.9115 14.6735 14.6056 14.9718L13.5197 16.0669L11.5011 18.0861C10.6092 18.9815 9.71856 19.8752 8.82919 20.7671C8.65764 20.936 8.65441 20.9581 8.82919 21.1393C9.25589 21.5709 9.68907 21.9992 10.1028 22.434C10.3588 22.7053 10.6967 22.8853 11.0647 22.9465C11.4118 23.0163 11.7705 23.0043 12.1123 22.9114C12.3683 22.8481 12.6046 22.7222 12.8001 22.5451L13.8574 21.524C14.1055 21.2855 14.3574 21.0498 14.6023 20.8076C15.0927 20.3221 15.5766 19.8333 16.0669 19.3511C16.4651 18.9594 16.8729 18.571 17.2769 18.1794L18.9346 16.5637C19.4504 16.0572 19.9693 15.548 20.4915 15.0414C20.5624 14.936 20.6861 14.8787 20.8124 14.8929C20.9387 14.907 21.0466 14.9903 21.0924 15.1088C21.3579 15.4965 21.4998 15.9553 21.4997 16.4251C21.4996 16.5055 21.4955 16.5858 21.4873 16.6657C21.4445 17.1393 21.2491 17.5862 20.9306 17.9393C20.5481 18.3504 20.1409 18.7388 19.7438 19.1337C19.4606 19.4136 19.1709 19.6877 18.8872 19.9709C18.5209 20.3339 18.1611 20.7035 17.7948 21.0665C17.7409 21.1269 17.6901 21.1906 17.633 21.2478L17.2732 21.6205C17.0034 21.8902 16.7289 22.1524 16.464 22.4227C16.1991 22.6929 15.8949 23.0091 15.6117 23.3041C15.5863 23.3327 15.5577 23.3516 15.5324 23.377C15.2135 23.6731 14.9206 23.9703 14.618 24.2687C14.475 24.4089 14.338 24.5519 14.1978 24.6921C13.9561 24.9376 13.7074 25.1776 13.4749 25.4279C13.332 25.5774 13.332 25.6696 13.5008 25.7877C13.778 26.0005 14.0731 26.189 14.3828 26.3509C15.1531 26.6993 16.0068 26.8207 16.8438 26.701C17.6745 26.6024 18.4538 26.2474 19.0733 25.6852C19.5442 25.2715 19.965 24.8065 20.4041 24.3609C20.7224 24.0421 21.0412 23.7017 21.3816 23.3737L22.3019 22.4469C22.5824 22.1637 22.8591 21.88 23.1429 21.6C23.4266 21.32 23.7794 20.9856 24.0977 20.67C24.416 20.3544 24.7348 20.0335 25.0531 19.6958C25.3068 19.4374 25.5412 19.1606 25.7543 18.8677C26.1516 18.2674 26.3997 17.5809 26.4777 16.8653C26.5209 16.5098 26.5209 16.1505 26.4777 15.795C26.383 15.1625 26.1538 14.5577 25.8056 14.0213C25.5551 13.6418 25.2555 13.2971 24.9144 12.9964C24.0324 12.1208 23.1531 11.2389 22.2906 10.3439C21.9103 9.9205 21.3681 9.67852 20.799 9.67823H20.7871L20.6916 9.69118L20.6905 9.69172Z" fill="white"/>
<defs>
<linearGradient id="paint0_linear_221_5074" x1="-6.60474" y1="19.5529" x2="19.0743" y2="37.1228" gradientUnits="userSpaceOnUse">
<stop stop-color="#FF3B3B"/>
<stop offset="1" stop-color="#FF9914"/>
</linearGradient>
</defs>
</svg>
