<svg width="32" height="32" viewBox="0 0 32 32" fill="none" xmlns="http://www.w3.org/2000/svg">
<g clip-path="url(#clip0_221_5070)">
<path d="M31.9714 15.9944C31.9714 24.7872 24.8438 31.9148 16.051 31.9148C7.25849 31.9148 0.130615 24.7872 0.130615 15.9944C0.130615 7.2017 7.25849 0.0739746 16.051 0.0739746C24.8438 0.0739746 31.9714 7.2017 31.9714 15.9944Z" fill="#1BA27A"/>
<path d="M23.523 8.10205H8.448V11.7415H14.1658V17.0907H17.8052V11.7415H23.523V8.10205Z" fill="white"/>
<path d="M16.02 17.6605C11.29 17.6605 7.45526 16.912 7.45526 15.9884C7.45526 15.065 11.2898 14.3163 16.02 14.3163C20.7499 14.3163 24.5845 15.065 24.5845 15.9884C24.5845 16.912 20.7499 17.6605 16.02 17.6605ZM25.6367 16.2672C25.6367 15.0763 21.3312 14.1111 16.02 14.1111C10.7089 14.1111 6.40308 15.0763 6.40308 16.2672C6.40308 17.3159 9.74174 18.1896 14.1659 18.3832V26.0622H17.8049V18.3862C22.2631 18.1986 25.6367 17.3213 25.6367 16.2672Z" fill="white"/>
</g>
<defs>
<clipPath id="clip0_221_5070">
<rect width="32" height="32" fill="white"/>
</clipPath>
</defs>
</svg>
