<svg width="82" height="108" viewBox="0 0 82 108" fill="none" xmlns="http://www.w3.org/2000/svg">
<circle cx="40" cy="40" r="40" transform="matrix(0.938191 0.346117 0 1 6.58398 -7.5)" fill="#DAF727"/>
<circle cx="40" cy="40" r="39" transform="matrix(0.938191 0.346117 0 1 0.333984 0)" fill="#5235E8" stroke="white" stroke-width="2"/>
<path d="M53.3392 36.2215L59.6671 38.556L46.4983 50.4801C41.7292 54.7951 33.9972 51.9426 29.2248 44.1076L16.0508 22.4651L22.3838 24.8015L32.3887 41.2411C33.8465 43.628 35.811 45.3894 37.8577 46.1444C39.9044 46.8995 41.8689 46.5877 43.3266 45.2763L53.3392 36.2215Z" fill="white"/>
<path d="M22.3029 71.4382L15.9707 69.1021L29.2251 57.106C33.9941 52.791 41.7261 55.6435 46.4986 63.4785L59.753 85.2542L53.4251 82.9197L43.3346 66.3451C41.8769 63.9581 39.9124 62.1968 37.8657 61.4417C35.819 60.6866 33.8545 60.9985 32.3968 62.3099L22.3029 71.4382Z" fill="white"/>
</svg>
