<svg width="32" height="32" viewBox="0 0 32 32" fill="none" xmlns="http://www.w3.org/2000/svg">
<g clip-path="url(#clip0_221_5069)">
<circle cx="16" cy="16" r="16" fill="#0E0637"/>
<path d="M22.5992 6.66675H25.2971L19.6825 13.3797C17.6492 15.8095 14.3527 15.8095 12.3179 13.3797L6.70117 6.66675H9.40128L13.6669 11.7662C14.2884 12.5059 15.126 12.9205 15.9986 12.9205C16.8712 12.9205 17.7088 12.5059 18.3303 11.7662L22.5992 6.66675Z" fill="white"/>
<path d="M9.36649 25.3335H6.66675L12.3178 18.5792C14.3511 16.1494 17.6476 16.1494 19.6824 18.5792L25.3334 25.3335H22.6355L18.3334 20.1927C17.7119 19.453 16.8743 19.0384 16.0017 19.0384C15.1291 19.0384 14.2915 19.453 13.67 20.1927L9.36649 25.3335Z" fill="white"/>
</g>
<defs>
<clipPath id="clip0_221_5069">
<rect width="32" height="32" fill="white"/>
</clipPath>
</defs>
</svg>
